<?xml version="1.0" encoding="UTF-8" standalone="no"?>
<!-- Created with Inkscape (http://www.inkscape.org/) by Toomai Glittershine for SmashWiki -->
<svg id="svg2" xmlns:rdf="http://www.w3.org/1999/02/22-rdf-syntax-ns#" xmlns="http://www.w3.org/2000/svg" version="1.1" xmlns:cc="http://creativecommons.org/ns#" xmlns:dc="http://purl.org/dc/elements/1.1/"
		height="256" width="256"
		viewBox="0 0 256 256">
	<metadata id="metadata7">
		<rdf:RDF>
			<cc:Work rdf:about="">
				<dc:format>image/svg+xml</dc:format>
				<dc:type rdf:resource="http://purl.org/dc/dcmitype/StillImage"/>
				<dc:title/>
			</cc:Work>
		</rdf:RDF>
	</metadata>
	<path id="mainsymbolpath" style="opacity:0.5;fill:#000000;fill-opacity:1;stroke:none"
		d="m 178.34375,47.8125 c -2.71881,15.751818 -6.42975,31.45122 -13.71875,44.15625 0,0 0.76088,-7.098177 -10.1875,-14.78125 C 143.48912,69.504426 127.58552,65.707167 108.34375,70.46875 90.254951,74.945018 78.732931,89.035686 73,104.25 c -4.993998,13.2533 -6.551771,33.99212 -9.625,47.4375 -3.073229,13.44538 -13.0625,30.5625 -13.0625,30.5625 0,0 30.186065,15.52247 64.5625,16.5 27.32875,0.77712 40.1037,-3.0649 45.5625,-5.65625 -9.29525,1.01611 -18.48606,-3.04436 -23.1875,-11.1875 -6.49747,-11.25394 -1.95576,-26.02517 10.125,-33 12.08076,-6.97483 27.12753,-3.50394 33.625,7.75 4.7942,8.3038 3.59674,18.50321 -2.21875,26.09375 3.68868,-1.32832 11.59893,-4.97804 17.71875,-13.375 8.2593,-11.33253 10.73863,-32.25964 7.28125,-46.28125 C 200.32386,109.07214 188.22899,93.124213 170.75,94.46875 179.14804,80.287158 188.28263,69.620121 197.1875,60 L 178.34375,47.8125 z"
	/>
</svg>