<?xml version="1.0" encoding="UTF-8" standalone="no"?>
<!-- Created with Inkscape (http://www.inkscape.org/) by Toomai Glittershine for SmashWiki -->
<svg id="svg2" xmlns:rdf="http://www.w3.org/1999/02/22-rdf-syntax-ns#" xmlns="http://www.w3.org/2000/svg" version="1.1" xmlns:cc="http://creativecommons.org/ns#" xmlns:dc="http://purl.org/dc/elements/1.1/"
		height="256" width="256"
		viewBox="0 0 256 256">
	<metadata id="metadata7">
		<rdf:RDF>
			<cc:Work rdf:about="">
				<dc:format>image/svg+xml</dc:format>
				<dc:type rdf:resource="http://purl.org/dc/dcmitype/StillImage"/>
				<dc:title/>
			</cc:Work>
		</rdf:RDF>
	</metadata>
	<path id="mainsymbolpath" style="opacity:0.5;fill:#000000;fill-opacity:1;stroke:none"
		d="m 153,55.531251 c -19.00311,0.476057 -42.40596,7.863993 -55.65625,37 -21.665429,47.640039 14.08857,97.380859 33.03125,105.124999 l -12.65625,7.65625 20.5,9.03125 -3.6875,-15.625 C 153.80036,201.1857 201.01237,180.43439 213.6875,138.25 226.74873,94.780611 193.97035,60.912753 170,56.812501 c -4.81804,-0.82415 -10.66563,-1.439936 -17,-1.28125 z m -12.65625,9.90625 c 3.00115,-0.138981 5.03078,0.710622 5.5,2.78125 0.93843,4.141257 -4.07499,4.894537 -7.03125,6.8125 -2.95626,1.917963 -9.86482,5.872319 -14.15625,10.53125 -4.29143,4.658931 -8.30827,12.010873 -9.5,14.874999 -1.19173,2.86413 -2.5102,10.26467 -7,10.46875 -4.48979,0.20408 -5.03572,-9.92092 -0.75,-20.124999 4.28572,-10.204083 12.78699,-18.247449 21.5625,-22.125 4.38775,-1.938775 8.37385,-3.079769 11.375,-3.21875 z m -49.1875,1.15625 c -3.760705,0.06661 -7.262358,0.618588 -10.3125,1.625 -15.694806,5.178594 -42.272689,19.462609 -40.0625,55.468749 2.696004,43.92052 48.604321,66.86396 66.03125,65.40625 -5.33827,-6.30936 -10.432335,-13.98951 -14.625,-22.75 C 81.945223,144.9427 77.053893,116.64256 89.625,89.000001 c 3.84955,-8.46476 8.620134,-15.380382 13.9375,-21 -4.271251,-1.003823 -8.493327,-1.475552 -12.40625,-1.40625 z m -28.5,22.0625 c 0.789097,-0.02763 1.445124,0.23574 1.96875,0.84375 2.094496,2.432046 -0.987535,4.702883 -2.28125,7.03125 -1.293715,2.328377 -4.505301,7.399719 -5.71875,12.031249 -1.213451,4.63154 -1.282181,10.97797 -1.0625,13.3125 0.219683,2.33455 1.956295,7.74096 -0.96875,9.46875 -2.925039,1.72778 -6.868983,-4.82479 -7.625,-13.15625 -0.75602,-8.33144 2.078496,-16.73809 6.5625,-22.437499 3.363004,-4.274558 6.75771,-7.010866 9.125,-7.09375 z"
	/>
</svg>