<?xml version="1.0" encoding="UTF-8" standalone="no"?>
<!-- Created with Inkscape (http://www.inkscape.org/) by Toomai Glittershine for SmashWiki -->
<svg id="svg2" xmlns:rdf="http://www.w3.org/1999/02/22-rdf-syntax-ns#" xmlns="http://www.w3.org/2000/svg" version="1.1" xmlns:cc="http://creativecommons.org/ns#" xmlns:dc="http://purl.org/dc/elements/1.1/"
		height="256" width="256"
		viewBox="0 0 256 256">
	<metadata id="metadata7">
		<rdf:RDF>
			<cc:Work rdf:about="">
				<dc:format>image/svg+xml</dc:format>
				<dc:type rdf:resource="http://purl.org/dc/dcmitype/StillImage"/>
				<dc:title/>
			</cc:Work>
		</rdf:RDF>
	</metadata>
	<path id="mainsymbolpath" style="opacity:0.5;fill:#000000;fill-opacity:1;stroke:none"
		d="M 130.7142,128 A 26.442377,26.442377 0 0 1 104.27182,154.44238 26.442377,26.442377 0 0 1 77.829443,128 26.442377,26.442377 0 0 1 104.27182,101.55762 26.442377,26.442377 0 0 1 130.7142,128 Z M 128,38 A 90,90 0 0 0 46.810547,89.421875 69.237846,69.237846 0 0 1 104.27148,58.761719 69.237846,69.237846 0 0 1 173.50977,128 69.237846,69.237846 0 0 1 104.27148,197.23828 69.237846,69.237846 0 0 1 46.6875,166.35938 90,90 0 0 0 128,218 90,90 0 0 0 218,128 90,90 0 0 0 128,38 Z"
	/>
</svg>