<?xml version="1.0" encoding="UTF-8" standalone="no"?>
<!-- Created with Inkscape (http://www.inkscape.org/) by Toomai Glittershine for SmashWiki -->
<!-- Mostly copied from the official website, but I had to add a vertex that was missing for some reason (a very obvious one: the bat's left tip). -->
<svg id="svg2" xmlns:rdf="http://www.w3.org/1999/02/22-rdf-syntax-ns#" xmlns="http://www.w3.org/2000/svg" version="1.1" xmlns:cc="http://creativecommons.org/ns#" xmlns:dc="http://purl.org/dc/elements/1.1/"
		height="256" width="256"
		viewBox="0 0 256 256">
	<metadata id="metadata7">
		<rdf:RDF>
			<cc:Work rdf:about="">
				<dc:format>image/svg+xml</dc:format>
				<dc:type rdf:resource="http://purl.org/dc/dcmitype/StillImage"/>
				<dc:title/>
			</cc:Work>
		</rdf:RDF>
	</metadata>
	<path id="mainsymbolpath" style="opacity:0.5;fill:#000000;fill-opacity:1;stroke:none"
		d="m 217.65974,175.65696 -0.20283,-1.90486 -2.75586,-4.66117 -1.49964,0 -0.28352,-4.66117 -0.76987,-1.58076 -2.837,-0.28352 -1.4185,-2.83699 -5.43103,-2.06714 -6.44568,-15.80676 -3.44506,8.83462 -3.28278,5.06639 -0.97271,0 -0.89158,3.48563 -2.75586,-9.32189 -2.18882,0 -1.37794,-2.39121 -1.29679,0 0,-0.60805 0.44579,0 2.14826,-3.32336 0,-8.63223 2.43402,0 -0.56749,-1.70248 0.6892,-1.13498 -1.94542,-8.02328 -0.72977,-1.13498 0.0812,-1.4185 -7.70055,-28.290191 0,-14.874621 -0.77347,0 -0.81134,0.08116 0,15.077468 -1.25624,5.106961 0.32408,1.985983 -1.33736,2.06712 -5.3481,19.77695 -10.49743,-0.44579 0,-19.00662 -1.25624,-0.16226 -5.26876,-8.428967 0.48635,-8.673263 2.14825,-2.5129 1.21703,0 0,-9.686543 -1.09442,0 0,-4.863557 2.75587,0 -10.98379,-33.316003 0,-2.634608 -0.85102,-2.837007 -0.72975,-0.811342 0,6.120243 -11.0257,33.434549 2.87756,0 0,4.863557 -1.13318,0 0,1.336456 -7.61761,0 0.12171,-0.769876 1.45906,-1.580769 0,-5.147519 3.03983,0 -7.57929,-20.751458 0,-7.539631 -1.58077,0.486362 0,7.335886 -3.85028,11.794233 0.16227,0.445792 -1.13498,1.823714 -2.75587,6.445671 3.03985,0 0,5.147519 1.45906,1.58077 1.29679,8.428961 0.6892,0 0.48635,6.1608 0.0406,0.445781 0.40567,4.782417 0.64412,0 0,-4.782417 1.74258,0 0.48636,-6.606581 0.72976,0 0.40567,-2.755868 2.06712,-2.310075 c 1.25623,-0.04058 2.59405,-0.04058 3.85027,0 l 2.43404,2.715746 0,3.0804 1.09441,0 2.14825,2.512912 0.48635,8.673263 -5.71456,9.160062 -0.81134,0.52692 0,5.06639 -1.41849,0 0,-0.81134 -1.25624,0 0,0.81134 -1.09666,0 0,-1.29679 -1.25623,0 0,1.29679 -1.13498,0 0,-0.52692 -1.25623,0 0,0.52692 -1.13498,0 0,-1.29679 -1.25623,0 0,1.29679 -1.13723,0 0,-0.81134 -1.25623,0 0,0.81134 -1.13272,0 0,-0.32408 -1.25624,0 0,0.32408 -1.13498,0 0,-0.81134 -1.25622,0 0,0.81134 -1.13498,0 0,-0.81134 -1.25758,0 0,0.81134 -1.13498,0 0,-1.29679 -1.09442,0 0,1.29679 -1.01327,0 -4.4989,-18.319686 -0.60806,-1.337364 0.0406,-0.932142 -3.769136,-12.483418 0,-12.603757 -0.689197,0 -0.648628,0.769864 0,12.523987 -6.160795,28.411896 0.202837,0.0406 -1.175547,4.01164 -2.229391,9.11949 2.10769,0 0,9.48416 2.148256,2.26951 -3.363919,0 1.25623,3.76913 0.202835,9.80824 -2.675178,1.33737 -0.56749,10.53799 -4.336629,0 -0.608057,-9.07892 0.445787,-0.44579 0,-0.97182 1.70247,0 0,-10.13277 -1.377932,-2.02835 -0.28352,-1.66191 -0.445788,0 -2.552576,-11.83343 -0.364654,-0.0406 -0.243403,-2.91813 -2.188373,-10.78004 0,-7.133517 -0.729758,-3.039831 -0.243403,0 0,10.295038 -2.917681,14.4284 -0.08114,2.02835 -0.526922,0.85102 -1.784504,8.10441 -0.648624,0 -0.364654,1.70247 -1.175546,1.98599 0,10.13277 1.742585,0 0,6.48489 0.567489,1.4185 0,8.552 -1.175546,0.12171 -2.391209,1.25623 -2.958699,0.16226 -0.769874,0.4458 -0.486355,1.01328 -6.363185,1.0944 -1.945421,-0.44579 -2.675179,0.81134 -1.661901,-0.0812 -1.217015,0.64862 0.08114,3.12097 -4.782417,9.60585 -3.282786,0.64863 -1.094412,4.90411 -0.891576,0.3241 -1.862033,7.57748 1.337365,1.5402 -0.648624,5.91741 0.526923,-0.48636 0.648623,0.0812 c -0.364654,3.36392 2.028358,7.4576 2.028358,7.4576 -0.851009,-3.52619 0.324087,-11.18618 2.229391,-12.76695 -1.783152,2.63462 -0.97271,7.61762 -0.97271,7.61762 0,0 0.283519,-2.87756 0.851009,-3.32335 l 0.324086,0.0812 c 0.14959,-0.28439 0.373825,-0.52265 0.648624,-0.6892 0.729758,-0.2434 0.932144,2.99927 0.932144,2.99927 0.12353,-0.58782 0.204872,-1.18373 0.243403,-1.78315 0,1.78315 -0.162269,3.93141 0.648624,5.55274 0,0 -0.283521,-2.02835 0.364653,-3.28279 0.648624,-1.29679 1.094412,-2.02835 1.094412,-2.02835 l -0.08114,1.70246 1.134979,1.17555 0.486356,0.85102 c 0,0 1.742585,5.02582 1.256229,6.20091 1.377931,-1.78315 2.148257,-10.86298 2.148257,-10.86298 l 1.702468,1.70247 0.811343,6.1608 0.811344,2.6346 0.364654,0.20284 1.094412,3.28279 c 0,-1.13498 -0.121702,-5.51218 -0.121702,-5.51218 0,0 1.742586,11.389 3.850274,15.92847 -0.891575,-1.90485 -1.134978,-11.5107 -1.134978,-11.5107 0,0 0.364653,3.85026 0.729758,4.37719 l 1.661901,-7.01181 2.148257,-2.51291 0.851009,-7.82225 1.5402,-0.97271 0.648624,-5.14752 3.728574,10.74038 2.188823,1.6619 1.945421,7.5793 2.350642,1.90485 0.729758,-0.36465 1.134979,-5.14752 3.931408,5.75513 2.229392,1.49963 5.512177,-0.81134 6.12024,2.71575 1.622683,-0.24296 1.985991,0.851 3.36392,8.10623 2.2695,-4.74185 1.05385,1.29679 1.17555,0.20284 6.04,-2.18882 2.06712,0.24295 3.16154,-2.59404 0.32408,1.17554 8.94821,-1.49512 9.56529,-5.43104 1.25624,1.37793 3.85026,0 c 0,0 3.44505,-8.02329 3.48562,-8.02329 l 1.45907,-0.1217 4.13424,-1.90485 2.35065,2.10769 10.05164,-5.51217 1.86429,3.72856 0.89157,-1.37793 1.37793,5.34991 3.72857,-8.02328 3.44822,0 5.87682,-8.34918 0.3241,-2.31007 0.40567,-0.28352 0.76986,0.16226 0.48636,-1.49963 3.40449,-2.02835 1.49963,0 0.52693,0.36465 0.64862,0.64863 2.9587,0.44578 3.2003,3.32336 1.6619,-1.25623 1.6619,-3.72858 1.09441,-0.28351 -0.56748,-4.13425 c 0,0 3.24221,1.17554 3.72856,8.10622 0.48637,6.93067 1.25623,11.26866 1.25623,11.26866 1.48093,-4.35288 2.49981,-8.84948 3.03984,-13.41556 -0.20283,2.10769 0.56749,4.94468 1.49963,5.55274 -0.76987,-3.40448 1.90486,-5.7957 1.49963,-10.05165 0.74612,1.92233 0.9289,4.01751 0.52692,6.04 0.82861,-1.01751 1.27327,-2.29386 1.25624,-3.60597 0.94273,0.98157 1.52806,2.2516 1.6619,3.60597 0.85101,-1.78315 0.44579,-4.66117 1.5402,-6.44567 -0.19228,0.89259 -0.12183,1.82178 0.20283,2.67518 0.48386,-2.59183 1.75815,-4.97034 3.64789,-6.80897 z m -109.71524,-61.60621 2.10769,-2.31006 c 4.74185,-0.36466 12.15887,-0.12171 16.69834,0.28351 l 2.63461,2.9587 0,4.90367 -5.63433,0 -0.81134,0.76988 -0.40567,-0.76988 -15.60258,0 0,-1.49963 2.10769,0 z m 10.33516,31.93808 -1.17555,-4.70173 -8.30861,0 -0.48635,-4.21493 -1.17555,0 -0.20283,-3.2003 1.21701,-3.76914 -3.36391,0 2.14824,-2.31007 0,-1.70247 c 0.72977,-0.93214 1.74259,-2.14826 2.51292,-2.99927 4.41731,-0.40567 11.59184,-0.68919 16.33369,-0.851 l 3.56676,3.97197 0,4.29607 -0.93214,0 -1.78316,1.01327 0,3.16153 -1.37793,1.49964 -0.0812,0 0,0.0812 -0.0406,0.0406 0,0.76986 0.0406,0.0812 0,9.7271 -1.82373,-0.20284 z m 41.94869,1.45907 -1.33736,-1.49964 -0.16227,-1.58076 -2.512,-1.17735 -0.97271,-6.07967 0.81134,-0.40567 1.21701,-4.90412 -1.0944,-1.21701 -1.21703,0 0,-1.58077 3.89085,-4.29607 c 1.17554,-0.0812 2.43403,-0.12169 3.60597,-0.12169 l 1.86429,2.06712 -2.26951,8.30861 3.28279,0 0,8.63494 2.14825,3.32335 0.44578,0 0,0.5675 z M 66.396958,44.297774 67.166833,44.50061 c 0,0 -1.459066,0.729306 -1.661901,0.851003 -0.405222,1.134529 -1.823721,10.983787 3.120967,14.226005 0.121701,-1.378383 1.499636,-3.56675 1.459066,-4.6206 0.932145,0.851463 0.972715,3.68801 0.891575,4.093681 l 0.891576,0.486349 c 0,0 2.755863,-1.783605 3.931409,-1.175547 -1.133176,0.526932 -2.024752,2.553481 -3.200298,3.404484 4.6206,1.175099 13.132041,-3.688446 13.618397,-6.64715 l -0.283519,-1.702466 c 3.769139,2.635965 7.011358,10.011076 7.417029,15.887902 -3.810158,-4.741848 -11.105486,-2.391203 -13.618397,1.5402 -1.580767,-3.769137 -7.781684,-4.539461 -10.294594,-1.823714 0.526923,-2.107689 -0.770325,-2.148258 -1.702468,-1.5402 -0.324086,0.202835 -3.769141,2.715746 -3.769141,2.715746 0,0 1.499633,-3.525743 1.661901,-4.417316 0.243404,-1.256686 -1.215662,-2.148258 -2.91813,-0.162266 0.164071,-3.039382 -1.456813,-6.646713 -7.617613,-6.200921 0.403595,-5.57443 -5.285957,-8.930349 -11.655325,-8.123916 8.554485,-6.762705 15.917195,-7.665847 22.959591,-6.99411 z"
	/>
</svg>