<?xml version="1.0" encoding="UTF-8" standalone="no"?>
<!-- Created with Inkscape (http://www.inkscape.org/) by Toomai Glittershine for SmashWiki -->
<svg id="svg2" xmlns:rdf="http://www.w3.org/1999/02/22-rdf-syntax-ns#" xmlns="http://www.w3.org/2000/svg" version="1.1" xmlns:cc="http://creativecommons.org/ns#" xmlns:dc="http://purl.org/dc/elements/1.1/"
		height="256" width="256"
		viewBox="0 0 256 256">
	<metadata id="metadata7">
		<rdf:RDF>
			<cc:Work rdf:about="">
				<dc:format>image/svg+xml</dc:format>
				<dc:type rdf:resource="http://purl.org/dc/dcmitype/StillImage"/>
				<dc:title/>
			</cc:Work>
		</rdf:RDF>
	</metadata>
	<path id="mainsymbolpath" style="opacity:0.5;fill:#000000;fill-opacity:1;stroke:none"
		d="M 132.89178,66.824521 129.127,188.04128 c 0.32637,4.04899 3.56059,7.68754 7.19788,7.97153 l 19.89413,-0.0807 c 4.43825,-0.32693 8.56374,-4.19701 8.7755,-10.24459 l -0.14301,-21.81321 10.68236,24.41125 c 2.57842,5.49664 9.7767,7.77051 16.25563,7.19942 l 20.65678,-5.17111 c 6.53494,-2.56085 8.25801,-7.60865 5.8333,-11.92303 l -30.98141,-52.31621 37.77505,-53.922315 c 1.51449,-3.398964 -0.21485,-8.440664 -3.32835,-9.573282 l -31.48182,-9.472407 c -4.50657,-0.608814 -8.32266,1.442041 -10.31188,4.71594 l -13.63008,36.981647 0.57386,-28.527559 c -0.50361,-6.215684 -6.829,-10.571644 -12.01229,-10.025691 l -13.36362,1.279954 c -3.97501,0.609835 -8.39782,4.179388 -8.62725,9.293594 z M 47.323892,56.196535 c 50.508203,-8.98719 72.072728,21.045029 79.318588,54.143215 7.29901,33.34104 -3.30422,79.75792 -48.233914,94.52317 -11.936111,3.32301 -20.210313,1.45495 -22.625473,-7.59654 L 30.980244,76.844268 C 30.154316,71.42265 28.032633,59.328257 47.323892,56.196535 z M 77.100513,152.42245 C 91.746782,152.9409 98.653123,135.88916 96.552572,123.37961 94.294518,109.93208 85.315331,98.475918 68.449891,104.61972 z"
	/>
</svg>