<?xml version="1.0" encoding="UTF-8" standalone="no"?>
<!-- Created with Inkscape (http://www.inkscape.org/) by Toomai Glittershine for SmashWiki -->
<svg id="svg2" xmlns:rdf="http://www.w3.org/1999/02/22-rdf-syntax-ns#" xmlns="http://www.w3.org/2000/svg" version="1.1" xmlns:cc="http://creativecommons.org/ns#" xmlns:dc="http://purl.org/dc/elements/1.1/"
		height="256" width="256"
		viewBox="0 0 256 256">
	<metadata id="metadata7">
		<rdf:RDF>
			<cc:Work rdf:about="">
				<dc:format>image/svg+xml</dc:format>
				<dc:type rdf:resource="http://purl.org/dc/dcmitype/StillImage"/>
				<dc:title/>
			</cc:Work>
		</rdf:RDF>
	</metadata>
	<path id="mainsymbolpath" style="opacity:0.5;fill:#000000;fill-opacity:1;stroke:none"
		d="m 87.5625,131.28808 c -7.290593,0 -13.15625,5.86565 -13.15625,13.15626 l 0,60.34375 c 0,7.29059 5.865657,13.15625 13.15625,13.15625 l 80.875,0 c 7.29059,0 13.15625,-5.86566 13.15625,-13.15625 l 0,-60.34375 c 0,-7.29061 -5.86566,-13.15625 -13.15625,-13.15625 l -80.875,0 z m 2.9375,16.50001 75,0 0,53.6875 -75,0 0,-53.6875 z M 87.5625,38.05568 c -7.290593,0 -13.15625,5.865657 -13.15625,13.15625 l 0,60.34375 c 0,7.29059 5.865657,13.15625 13.15625,13.15625 l 80.875,0 c 7.29059,0 13.15625,-5.86566 13.15625,-13.15625 l 0,-60.34375 c 0,-7.290593 -5.86566,-13.15625 -13.15625,-13.15625 l -80.875,0 z m 2.9375,16.5 75,0 0,53.6875 -75,0 0,-53.6875 z"
	/>
</svg>