<?xml version="1.0" encoding="UTF-8" standalone="no"?>
<!-- Created with Inkscape (http://www.inkscape.org/) by Toomai Glittershine for SmashWiki -->
<svg id="svg2" xmlns:rdf="http://www.w3.org/1999/02/22-rdf-syntax-ns#" xmlns="http://www.w3.org/2000/svg" version="1.1" xmlns:cc="http://creativecommons.org/ns#" xmlns:dc="http://purl.org/dc/elements/1.1/"
		height="256" width="256"
		viewBox="0 0 256 256">
	<metadata id="metadata7">
		<rdf:RDF>
			<cc:Work rdf:about="">
				<dc:format>image/svg+xml</dc:format>
				<dc:type rdf:resource="http://purl.org/dc/dcmitype/StillImage"/>
				<dc:title/>
			</cc:Work>
		</rdf:RDF>
	</metadata>
	<path id="mainsymbolpath" style="opacity:0.5;fill:#000000;fill-opacity:1;stroke:none"
		d="m 105.71875,55.593752 c -1.34052,0.0094 -2.45142,0.282263 -3.28125,0.875 -5.310924,3.793518 5.69126,16.319403 10.8125,32.0625 4.32986,13.310298 7.29859,30.404408 8.15625,35.624998 -4.9683,-0.42199 -8.86791,-0.80606 -10.25,-1.125 -4.93157,-1.13805 -12.891807,-8.90486 -16.875,-11.75 -3.983194,-2.84514 -8.541717,-9.4731 -21.25,-9.09375 -12.708283,0.37935 -13.105417,6.24643 -14.8125,9.28125 -1.707083,3.03481 -2.264631,5.31981 -6.4375,7.40625 -4.17287,2.08643 -13.478241,-1.14676 -15.375,0.75 -1.896759,1.89676 -4.906851,7.78421 0.59375,10.25 5.5006,2.46578 22.159697,1.66817 24.59375,2.0625 1.133936,0.1837 5.665141,2.16792 13.0625,3.875 7.397359,1.70709 16.971713,2.98042 19.4375,4.6875 2.465786,1.70709 9.45945,10.41 15.71875,15.53125 6.2593,5.12124 14.81783,12.70866 25.25,16.3125 8.69372,3.00329 12.64558,5.72233 21.625,5.125 7.17601,5.33963 13.9951,10.8468 19.3125,17.03125 1.64464,-3.48648 4.395,-5.19129 7.4375,-6.40625 -1.34899,-3.20975 -1.00663,-6.4836 0.28125,-9.78125 -4.78999,-0.28394 -9.57681,-0.54932 -16.53125,-2.78125 11.13191,-3.74179 18.56169,-12.88608 23.4375,-17.59375 5.5006,-5.31093 26.5625,-19.15625 26.5625,-19.15625 l -2.46875,-0.5625 7.40625,-5.5 c 0,0 -9.12875,1.6875 -14.25,1.6875 -4.98343,0 -32.7148,-5.90091 -44.34375,-7.09375 2.05384,-22.69618 -5.69804,-39.241424 -10.28125,-30.624998 -4.36255,-17.45018 -22.73912,-41.352866 -23.6875,-26.9375 -3.36082,-6.5616 -16.60495,-14.207044 -23.84375,-14.15625 z"
	/>
</svg>