<?xml version="1.0" encoding="UTF-8" standalone="no"?>
<!-- Created with Inkscape (http://www.inkscape.org/) by Toomai Glittershine for SmashWiki -->
<svg id="svg2" xmlns:rdf="http://www.w3.org/1999/02/22-rdf-syntax-ns#" xmlns="http://www.w3.org/2000/svg" version="1.1" xmlns:cc="http://creativecommons.org/ns#" xmlns:dc="http://purl.org/dc/elements/1.1/"
		height="256" width="256"
		viewBox="0 0 256 256">
	<metadata id="metadata7">
		<rdf:RDF>
			<cc:Work rdf:about="">
				<dc:format>image/svg+xml</dc:format>
				<dc:type rdf:resource="http://purl.org/dc/dcmitype/StillImage"/>
				<dc:title/>
			</cc:Work>
		</rdf:RDF>
	</metadata>
	<path id="mainsymbolpath" style="opacity:0.5;fill:#000000;fill-opacity:1;stroke:none"
		d="m 182.93368,68.598443 c -1.39195,-2.127608 -1.49363,-2.234767 -3.73029,-3.931204 -2.79898,-2.122933 -3.25598,-2.19573 -4.49148,-0.715477 -0.26685,0.319728 -0.6189,0.58057 -0.78232,0.579647 -0.42603,-0.0024 -2.10357,-0.998161 -2.40386,-1.426887 -0.13968,-0.199427 -0.87705,-0.633534 -1.63859,-0.96468 -1.48209,-0.644477 -3.1124,-2.039772 -3.51281,-3.006466 -0.1797,-0.433833 -0.16327,-0.566089 0.1075,-0.86528 0.17579,-0.194245 0.38108,-0.353174 0.45618,-0.353174 0.0751,0 1.24989,0.51595 2.61061,1.146557 l 2.47403,1.146558 2.23586,-0.09226 2.23587,-0.09225 2.41474,1.136862 c 1.3281,0.625276 2.67402,1.321806 2.99094,1.547846 0.82023,0.585008 3.44835,4.034267 3.44835,4.525733 0,0.223224 -0.13115,0.87329 -0.29145,1.444592 -0.23494,0.837317 -0.24804,1.091048 -0.0675,1.308538 0.1787,0.215323 0.17896,0.323986 0.002,0.538111 -0.12246,0.147567 -0.31343,0.266538 -0.42434,0.264383 -0.11094,-0.0022 -0.84563,-0.988174 -1.63265,-2.191149 z M 127.99726,42.398985 c -18.49766,0 -35.619414,5.861735 -49.616516,15.837141 -0.170772,0.405133 -0.261416,0.902167 -0.34269,1.542102 -0.06406,0.504473 -0.40992,0.674587 -1.44419,1.174935 -1.520095,0.735375 -1.705507,0.928912 -1.835836,1.958224 -0.08368,0.660892 -0.221838,0.912488 -0.78329,1.34628 -0.931181,0.719455 -2.417046,2.251158 -2.717036,2.814948 -0.286252,0.537974 -0.162926,1.361172 0.244778,1.517624 0.272983,0.104752 0.706031,-0.153585 2.692559,-1.713447 l 1.00359,-0.807768 0.611945,0.34269 c 0.33895,0.182538 0.596987,0.407939 0.56299,0.514034 -0.09285,0.289743 -3.099736,2.67274 -4.479439,3.549282 -0.665703,0.422927 -1.590491,1.002189 -2.056136,1.297324 -0.623918,0.395451 -1.135488,0.999697 -1.958225,2.251957 -1.192576,1.81518 -1.288324,2.15465 -0.856723,3.37794 0.422459,1.19737 0.380315,1.35573 -0.685378,1.86031 -0.531398,0.25161 -1.092686,0.63445 -1.248369,0.85672 -0.354508,0.50613 -0.292377,0.62624 1.811358,3.05973 2.077714,2.40339 2.352466,2.53457 5.164817,2.37435 l 2.203003,-0.12239 3.182115,-1.34628 c 1.747353,-0.74031 3.449737,-1.55725 3.79406,-1.81136 0.344323,-0.25411 1.342077,-1.15046 2.227481,-2.00718 1.736134,-1.67988 4.275653,-3.20659 5.311684,-3.20659 0.618703,0 6.774122,1.57185 7.000653,1.78688 0.207947,0.19739 -3.549868,2.28745 -4.35705,2.4233 l -0.660901,0.12239 -0.122389,1.68897 c -0.110637,1.47571 -0.103519,1.72794 0.171345,2.03166 0.390647,0.43166 0.336613,0.46518 3.475848,-2.08062 1.267619,-1.02798 2.43013,-1.86031 2.57017,-1.86031 0.698945,0 1.309417,0.40333 1.517624,0.97911 0.119916,0.33163 0.386478,0.79703 0.587468,1.05255 0.346584,0.44061 0.456159,0.46508 2.03166,0.46508 l 1.66449,0 1.46867,-2.17853 c 0.81581,-1.20513 1.70267,-2.43703 1.95822,-2.71703 0.48792,-0.53462 3.02508,-1.90927 3.52481,-1.90927 0.16019,0 0.60964,0.27545 1.00359,0.58746 0.61394,0.48626 0.77773,0.5296 1.07702,0.34269 0.43505,-0.27169 0.97047,-0.10636 1.22389,0.36717 0.16549,0.30921 0.094,0.44599 -0.56299,1.05255 -0.49841,0.46012 -0.87189,0.6636 -1.05255,0.58746 -1.18222,-0.49823 -1.19562,-0.48423 -1.86031,-0.0734 -0.35792,0.22121 -0.6609,0.49081 -0.6609,0.61195 0,0.12113 0.24338,0.45157 0.53851,0.73433 0.29514,0.28276 0.53851,0.60066 0.53851,0.70986 0,0.10919 -0.31634,0.52142 -0.70985,0.90567 -0.94342,0.92123 -0.97111,1.57971 -0.0979,2.27644 0.67084,0.53527 1.00901,0.60644 1.83583,0.31821 0.46573,-0.16235 0.6443,-0.14854 1.22389,0.24478 0.3703,0.2513 0.74076,0.46508 0.83225,0.46508 0.0915,0 0.12934,0.16515 0.0979,0.36717 -0.0454,0.2917 -0.58378,0.58178 -2.6436,1.39523 -2.15672,0.85171 -2.59627,1.0909 -2.64361,1.41971 -0.1033,0.71746 0.63067,0.86801 2.203,0.4406 1.78301,-0.48467 2.20483,-0.35564 2.71704,0.85673 0.45497,1.07688 0.72917,1.1164 2.05614,0.31821 1.50693,-0.90645 1.62177,-1.03489 1.51762,-1.81136 -0.0792,-0.59059 -0.0255,-0.71342 0.34269,-0.8812 0.37252,-0.16973 0.53886,-0.0948 1.44419,0.58747 0.56896,0.42878 1.41209,1.17812 1.86031,1.66449 0.97886,1.06217 1.21362,1.05236 2.66809,-0.14687 1.28583,-1.06019 1.89732,-1.04657 2.49673,0.0734 0.21672,0.40494 0.18354,0.45571 -1.83583,1.54211 -0.87235,0.46931 -1.95382,1.15695 -2.39883,1.5421 -1.4436,1.24942 -1.5161,1.27447 -2.79047,1.05254 -1.82357,-0.31756 -2.19737,-0.24507 -3.76958,0.61195 l -1.44419,0.78329 -1.59106,-0.34269 -1.59106,-0.36717 -0.90568,0.53851 -0.93015,0.51404 -0.049,1.73792 -0.0489,1.7624 0.68538,0.807769 c 1.24607,1.51277 1.18816,1.38017 0.83224,1.9827 -0.19845,0.33594 -0.56335,0.61476 -0.95463,0.73434 -1.50676,0.46046 -1.63768,0.56501 -2.08062,1.56658 -0.23797,0.53808 -0.4406,1.07647 -0.4406,1.19941 0,0.33369 0.83548,1.78039 1.24837,2.15405 0.27967,0.2531 0.35534,0.44679 0.26926,0.90568 -0.13131,0.69988 0.24228,3.64719 0.46508,3.64719 0.0848,0 0.51084,-0.23259 0.95463,-0.51403 0.90972,-0.57693 0.48883,-0.60701 5.11586,0.26925 1.32811,0.25152 2.55334,0.52644 2.71704,0.61195 0.16783,0.0877 0.55641,0.92468 0.8812,1.90927 0.31676,0.96026 0.65498,1.85182 0.75881,1.9827 0.23265,0.29325 0.38077,0.27102 3.15764,-0.70986 l 2.22748,-0.80776 1.78688,0.2203 c 0.98378,0.11974 2.422,0.23544 3.18211,0.24477 l 1.37076,0 0.85673,-1.15045 c 0.46962,-0.63423 0.97313,-1.19497 1.1015,-1.24837 0.22831,-0.095 2.2817,0.68129 2.59464,0.97911 0.091,0.0866 0.0468,0.4584 -0.12238,0.8812 -0.32004,0.79986 -0.24816,1.15069 0.46507,1.93375 0.50442,0.5538 0.74201,0.5198 1.19942,-0.2203 0.38535,-0.62352 0.40333,-0.66892 0.0979,-1.46867 -0.36393,-0.95294 -0.3872,-0.94426 1.24837,-1.49315 l 1.07702,-0.34269 2.12957,0.41613 c 1.16,0.23567 2.18399,0.49502 2.27643,0.58746 0.10487,0.10486 0.0643,0.41946 -0.0979,0.80777 -0.30373,0.72694 -0.23618,0.87512 0.58747,1.29733 0.4888,0.25056 1.12313,0.32243 3.15764,0.34268 l 2.54569,0.0244 0.95463,0.68538 c 0.52804,0.3736 1.34217,0.96407 1.81136,1.29733 1.04242,0.74041 4.62118,1.90827 7.90633,2.59464 2.79432,0.58382 3.2703,0.60569 3.69615,0.2203 0.17991,-0.16281 0.34269,-0.44606 0.34269,-0.63642 0,-0.46784 -2.18977,-4.06332 -2.47226,-4.06332 -0.12346,0 -0.54651,-0.29198 -0.95463,-0.6609 -0.72917,-0.65907 -0.77511,-0.67412 -2.39883,-0.73433 -1.53213,-0.0568 -1.69136,-0.1095 -2.30091,-0.61195 -0.36161,-0.29805 -0.63478,-0.63552 -0.58747,-0.75881 0.0473,-0.1233 -0.0316,-0.44042 -0.17134,-0.70985 -0.35515,-0.68454 -0.3125,-0.99847 0.19582,-1.61554 0.37028,-0.44947 0.48851,-0.494 0.63642,-0.26925 0.12739,0.19357 0.49408,0.26925 1.34628,0.26925 1.17852,0 1.17534,-0.002 1.9827,-0.85672 0.64254,-0.68007 0.77568,-0.9042 0.61195,-1.1015 -0.39961,-0.48149 -1.92252,-0.84129 -6.43766,-1.46867 l -4.57735,-0.63643 -4.92004,-1.61553 -4.92004,-1.64001 -3.03525,-2.57017 c -1.67243,-1.42352 -3.05224,-2.704159 -3.0842,-2.839429 -0.14831,-0.62771 0.37742,-1.48898 1.46866,-2.37435 1.23548,-1.00239 1.51396,-1.05933 3.62272,-0.75881 0.81009,0.11545 1.08201,0.268 2.00718,1.15046 0.58619,0.55913 1.10872,1.02807 1.17494,1.02807 0.0662,0 0.35307,-0.25968 0.63642,-0.56299 l 0.51403,-0.53851 0.53851,0.36716 c 0.65346,0.46531 0.68464,0.76919 0.12239,1.9827 -0.59604,1.286519 -0.4537,1.576479 1.07703,2.178529 1.49979,0.58988 1.77135,0.59696 3.76958,0.12239 1.86721,-0.44347 1.82615,-0.43386 3.94093,-1.93375 1.24802,-0.885159 1.66449,-1.263309 1.66449,-1.566579 0,-0.48582 -0.31334,-0.64983 -1.68897,-0.95463 -1.57511,-0.349 -1.9996,-0.75543 -3.10868,-2.83943 l -0.97912,-1.83583 1.05255,-1.07703 c 0.57895,-0.58746 1.30698,-1.22737 1.61554,-1.41971 0.72493,-0.45191 0.80578,-0.83741 0.39164,-1.7624 -0.18513,-0.4135 -0.34269,-0.95933 -0.34269,-1.19941 0,-0.44997 0.4626,-1.49315 0.6609,-1.49315 0.0615,0 0.58777,0.50093 1.15046,1.1015 0.90787,0.969 1.06399,1.05848 1.39523,0.8812 0.21635,-0.11579 0.42291,-0.45249 0.48956,-0.80777 0.13878,-0.73972 -0.39717,-4.06472 -0.78329,-4.89556 -0.26661,-0.57368 -0.26776,-0.61344 0.17134,-1.05254 0.25052,-0.25052 0.54533,-0.399 0.63643,-0.34269 0.0911,0.0563 0.38286,0.67698 0.6609,1.39523 0.64324,1.66172 2.37287,4.58515 2.8639,4.84661 0.20658,0.11 0.78096,0.49366 1.27285,0.85672 0.49189,0.36307 0.9994,0.70643 1.15045,0.75881 0.15105,0.0524 1.05887,-1.6e-4 2.00718,-0.0979 1.64787,-0.16983 1.78338,-0.15277 3.2066,0.31821 1.28083,0.42387 1.68964,0.65925 2.8639,1.71345 1.49886,1.34561 1.62676,1.3803 3.23107,0.93016 0.99758,-0.27991 1.06373,-0.2737 1.41971,0.049 0.31359,0.28422 0.7202,0.34208 2.57017,0.39165 2.44404,0.0655 2.16713,0.14081 6.78036,-1.83584 1.71211,-0.7336 2.10011,-0.96735 2.83942,-1.81136 0.4673,-0.53345 0.83225,-1.08088 0.83225,-1.22389 0,-0.3456 -1.03986,-1.51762 -1.34628,-1.51762 -0.13279,0 -1.24831,0.68199 -2.47226,1.51762 l -2.22748,1.51763 -2.98629,0.049 -3.01077,0.0734 -1.98271,-0.85673 c -1.66146,-0.73179 -2.1039,-1.02444 -2.81494,-1.81135 -0.46621,-0.51596 -0.85563,-1.09753 -0.85673,-1.27285 -0.003,-0.52755 -0.50971,-1.54937 -0.75881,-1.5421 -0.12798,0.004 -0.45504,0.33096 -0.73433,0.73433 l -0.51404,0.73434 -1.41971,-1.41972 c -0.88617,-0.87647 -1.60554,-1.76539 -1.88479,-2.34987 -0.44671,-0.93496 -0.4472,-0.92634 -0.12239,-1.59105 0.30039,-0.61473 0.55042,-0.77832 2.98629,-1.86032 2.62145,-1.16441 2.66003,-1.19095 3.18212,-2.10509 0.29036,-0.50837 0.59997,-0.93015 0.70985,-0.93015 0.34014,0 3.74511,2.04738 3.74511,2.25195 0,0.10621 -0.82746,0.55469 -1.83584,1.00359 -2.45903,1.0947 -2.47777,1.25954 -0.0979,2.766 1.42453,0.90172 3.65498,1.86031 4.33257,1.86031 0.0627,0 0.51947,-0.37941 1.00359,-0.83225 l 0.8812,-0.80776 2.25196,0.53851 c 2.67842,0.64994 2.53371,0.70428 4.60183,-1.24837 l 1.37076,-1.3218 0,-1.61554 c 0.005,-2.69652 0.46071,-2.70765 1.46867,-0.0734 0.5455,1.4256 0.57853,1.66651 0.58746,3.84302 l 0,2.32539 1.98271,0.56299 c 1.08216,0.32058 2.13231,0.58607 2.34987,0.58746 0.43084,0.003 0.38999,-0.1237 1.19941,3.13316 0.35429,1.42556 0.48751,2.64701 0.6609,5.99707 0.29998,5.79604 -0.11569,5.2108 4.69974,6.780349 l 3.84301,1.24837 2.44778,-0.36717 2.44779,-0.39165 0.97911,0.48956 c 0.64934,0.31847 1.06691,0.48849 1.24837,0.34269 -1.92035,-5.929559 -4.46308,-11.581189 -7.56365,-16.865209 -0.14086,0.0656 -0.32624,0.16262 -0.36716,0.26926 -0.0566,0.14756 -0.18008,0.26925 -0.29374,0.26925 -0.27715,0 -5.85122,-6.29348 -6.24184,-7.04961 -0.16941,-0.32793 -0.35312,-0.92785 -0.41612,-1.3218 -0.10192,-0.63737 -0.0731,-0.75562 0.34269,-1.02807 0.21731,-0.14238 0.49967,-0.38928 0.58747,-0.53851 -9.24405,-11.831955 -21.53476,-21.159585 -35.68865,-26.827634 l -0.70985,0.293733 c -2.05222,0.848986 -1.90974,0.899559 -3.62272,-0.930156 l -1.3218,-1.419713 c -8.23922,-2.639146 -17.02692,-4.063316 -26.1423,-4.063316 z m 36.03133,19.166123 c 0.0725,-0.01014 0.13811,0.0062 0.19583,0.02448 0.49877,0.158306 2.34987,2.198015 2.34987,2.594647 0,0.18557 -0.19747,0.4588 -0.41613,0.611945 -0.21865,0.153145 -0.42995,0.269256 -0.48955,0.269256 -0.19834,0 -3.2066,-2.158568 -3.2066,-2.300914 0,-0.07697 0.31456,-0.392191 0.70986,-0.709856 0.36276,-0.291523 0.63901,-0.459139 0.85672,-0.489556 z m -7.46573,0.832245 c 0.13944,-0.01661 0.29414,0 0.48956,0 0.85676,0 0.97931,0.04536 2.57017,1.34628 2.53329,2.071585 3.37794,2.95025 3.37794,3.475848 1.9e-4,0.265188 0.5111,1.228097 1.24836,2.325392 2.07188,3.083655 2.46432,4.072308 1.95823,5.017948 -0.10184,0.19029 -0.30541,0.34269 -0.4406,0.34269 -0.43124,0 -2.85014,-2.12911 -3.50033,-3.084202 -0.56412,-0.828649 -0.87152,-1.066462 -3.0842,-2.22748 -1.35292,-0.70988 -2.79618,-1.557961 -3.2066,-1.909269 -0.82675,-0.707674 -0.84531,-0.726578 -1.78688,-0.465079 -0.57339,0.159255 -0.78096,0.116451 -1.5421,-0.269255 -1.02675,-0.520292 -2.39549,-1.976049 -2.32539,-2.496737 0.0274,-0.203408 0.25719,-0.419538 0.51404,-0.489556 2.29355,-0.625223 2.63378,-0.669836 3.42689,-0.4406 0.39503,0.114176 0.5844,0.04396 1.17493,-0.489557 0.46214,-0.417494 0.70768,-0.586576 1.12598,-0.636423 z m 18.43179,4.822128 c 0.64524,0 1.35826,0.364787 1.86031,0.930157 0.70576,0.79476 2.45032,3.72728 3.23107,5.458553 0.68196,1.51222 0.77652,1.89962 0.75882,2.91286 -0.0111,0.63945 -0.0599,1.39383 -0.12239,1.68897 -0.1587,0.74852 -0.89843,0.78281 -2.05614,0.0979 -1.5299,-0.90509 -1.56975,-0.94389 -2.25196,-4.43049 -0.0833,-0.4255 -0.33982,-1.0097 -0.58746,-1.272842 -0.42789,-0.454675 -2.1051,-3.08284 -2.1051,-3.304504 0,-0.05763 0.16334,-0.556732 0.36717,-1.101501 0.3355,-0.896692 0.42348,-0.979113 0.90568,-0.979113 z m -35.76208,4.797651 c 0.63549,0.02923 1.41716,0.55932 2.57017,1.640009 0.92503,0.86701 1.00346,1.3093 0.26926,1.68897 -0.29026,0.1501 -0.64613,0.26926 -0.78329,0.26926 -0.32502,0 -3.5248,-2.28873 -3.5248,-2.52122 0,-0.098 0.19912,-0.37047 0.4406,-0.611941 0.32035,-0.320348 0.64677,-0.482619 1.02806,-0.465078 z m -40.633158,0.02448 c 0.367124,0 0.881202,0.818459 0.881202,1.395229 0,0.5955 -1.178686,1.96189 -1.909269,2.20301 -0.368321,0.12155 -0.901917,0.35709 -1.199413,0.53851 -0.297493,0.18142 -0.635956,0.32244 -0.734334,0.31821 -0.451275,-0.0193 -1.879963,-0.90719 -2.227481,-1.39524 -0.680885,-0.95621 -0.502323,-1.10457 2.056136,-1.7624 1.608084,-0.41347 2.37883,-0.7164 2.545692,-0.954629 0.132241,-0.188802 0.398818,-0.34269 0.587467,-0.34269 z m 27.390668,0.02448 c 0.0739,-0.0049 0.15852,0.01211 0.24478,0.02448 0.43395,0.06221 1.34001,1.623129 1.34628,2.325399 0.002,0.29254 -0.2286,0.72064 -0.56299,1.1015 -0.69923,0.79637 -1.22353,0.81992 -1.66449,0.0734 -0.27452,-0.46477 -0.31681,-0.7773 -0.2203,-1.83584 0.10787,-1.183237 0.33933,-1.654468 0.85672,-1.688967 z m -3.94093,3.059729 c 0.12171,-0.0268 0.22584,0.0224 0.39165,0.0979 0.64683,0.29472 0.78785,0.9614 0.34269,1.66449 l -0.36717,0.56299 0.39164,1.05255 c 0.35546,0.97599 0.34653,1.05391 0.0734,1.61554 -0.51817,1.06564 -1.59766,2.15374 -2.59464,2.59465 -1.13262,0.5009 -1.26036,0.50557 -1.83584,0.12238 -0.62351,-0.41516 -0.90568,-0.77103 -0.90568,-1.22388 0,-0.71714 -0.3786,-0.83249 -1.51762,-0.44061 -1.29632,0.446 -1.25784,0.45562 -1.78688,-0.0734 -0.58066,-0.58065 -0.54953,-0.80327 0.14686,-1.1015 0.31974,-0.13693 1.09231,-0.67719 1.71345,-1.22389 0.62114,-0.54671 1.15868,-1.00359 1.19941,-1.00359 0.0407,0 0.49622,0.20423 1.02807,0.46507 0.53186,0.26085 1.10319,0.44736 1.24837,0.39165 0.14518,-0.0557 0.33303,-0.45399 0.4406,-0.8812 0.12604,-0.50054 0.5123,-1.1319 1.07702,-1.7624 0.51684,-0.57705 0.75179,-0.81213 0.95464,-0.85673 z m -19.23955,0.56299 c 0.0985,-0.0153 0.1639,-0.0122 0.19582,0 0.29193,0.11203 0.31528,1.04447 0.049,1.5421 -0.1013,0.18927 -0.442,0.49915 -0.75881,0.6609 -0.31682,0.16176 -0.9059,0.59877 -1.32181,0.97912 -0.4269,0.39039 -0.94547,0.68944 -1.17493,0.68537 -0.548742,-0.01 -1.335441,-0.4738 -1.56658,-0.90568 -0.25733,-0.48083 0.200328,-1.32422 0.905679,-1.68897 0.84191,-0.43537 2.981851,-1.16574 3.671671,-1.27285 z m 36.86357,0.7588 c 0.30868,0.003 0.78944,0.0724 1.73793,0.24479 1.07424,0.19526 2.02684,0.36717 2.10509,0.36717 0.33971,0 1.41971,1.13004 1.41971,1.49315 0,0.51741 -1.03744,1.49148 -1.81135,1.71344 -0.85955,0.24651 -0.837,0.27147 -2.3254,-0.63642 -2.37377,-1.44797 -2.82305,-2.20178 -1.78688,-2.96182 0.21716,-0.15929 0.35223,-0.22377 0.6609,-0.2203 z m 61.17005,10.8192 c 0.29563,-0.008 0.74495,0.12854 1.39523,0.41613 0.54389,0.24053 1.00359,0.51904 1.00359,0.61194 0,0.0929 -0.14504,0.34914 -0.31821,0.56299 -0.1964,0.24253 -0.6042,0.42614 -1.07702,0.48956 l -0.75882,0.0979 -0.36716,-0.83225 c -0.39444,-0.89167 -0.37034,-1.33344 0.12239,-1.34627 z m 2.05613,4.67527 c 0.15082,-0.029 0.36091,0.13853 0.46508,0.36716 0.10418,0.22862 0.84124,1.32165 1.64001,2.44777 0.79878,1.12615 1.44419,2.20676 1.44419,2.39883 0,0.19208 -0.1332,0.8231 -0.29373,1.39523 -0.16054,0.57213 -0.37955,1.02988 -0.48956,1.02807 -0.11,-0.002 -0.71749,-0.51274 -1.37075,-1.15045 -1.23059,-1.20127 -1.72938,-1.40288 -2.52122,-0.97912 -0.30313,0.16223 -0.44969,0.11968 -0.8812,-0.29373 -0.59354,-0.56864 -0.6211,-0.8106 -0.24478,-2.10509 0.28514,-0.98087 1.75665,-3.01329 2.25196,-3.10868 z m 10.18277,32.898159 c -0.30676,0.0469 -0.33704,0.60887 -0.19582,2.76599 0.0828,1.26426 0.10346,2.82595 0.0489,3.47585 -0.0968,1.15489 -0.10576,1.21075 -1.27284,2.52121 -1.16604,1.3093 -2.88839,4.23601 -2.88839,4.92004 0,0.17592 0.66088,0.91419 1.46867,1.66449 l 1.46867,1.37076 -0.2203,0.73434 c -0.11914,0.39767 -0.19582,1.06802 -0.19582,1.49314 0,0.74961 -1.09982,4.63246 -1.81136,6.43766 -0.21434,0.54376 -0.34187,1.32799 -0.34269,2.00718 -0.002,1.0392 -0.0818,1.2282 -1.12598,3.01078 -1.12058,1.9131 -4.97233,7.16632 -6.19288,8.44484 -0.37457,0.39236 -1.95025,1.41248 -3.69615,2.39882 -1.67243,0.94483 -3.65619,2.11182 -4.43048,2.59465 -0.77429,0.48285 -1.69468,0.92442 -2.03166,0.97911 -0.54072,0.0877 -0.70234,0.26718 -1.39524,1.46867 -0.43186,0.74883 -0.85005,1.46298 -0.93015,1.59106 -0.1183,0.18917 -0.29439,0.17655 -0.93016,-0.049 -0.96133,-0.34095 -1.61124,-0.36444 -1.9827,-0.0489 -0.15531,0.1319 -1.37986,0.72059 -2.74152,1.29732 l -2.47226,1.05255 -0.70985,1.37075 c -0.37937,0.75451 -0.81829,1.43144 -0.97911,1.49315 -0.16081,0.0617 -0.60695,0.0979 -1.00359,0.0979 -0.57484,0 -1.57254,0.45187 -4.87109,2.17853 -2.27609,1.19145 -4.6235,2.46514 -5.21377,2.83942 -0.80547,0.51074 -2.5461,1.1555 -6.97618,2.59465 -5.45464,1.77199 -5.9402,1.97537 -6.56005,2.59465 -0.7606,0.7599 -0.82981,0.98808 -0.31821,1.15045 0.19675,0.0624 0.36717,0.23106 0.36717,0.36717 0,0.27846 -2.12181,1.51763 -2.59465,1.51763 -0.16824,0 -0.5183,0.23387 -0.78329,0.51403 -0.48711,0.515 -1.74069,0.93919 -3.42689,1.17493 -1.41925,0.19842 -1.78688,0.31016 -1.78688,0.48956 0,0.0965 0.57117,0.83436 1.27284,1.64001 1.77587,2.03906 1.9125,2.27649 1.81136,3.32899 -0.0832,0.86601 -0.0706,0.88181 0.83225,1.71344 0.50377,0.46405 0.90567,0.95213 0.90567,1.07703 0,0.12489 -0.48663,0.38238 -1.1015,0.58746 -0.61486,0.20508 -1.40615,0.55648 -1.73792,0.75882 l -0.58747,0.36716 0.12239,1.07703 c 0.10039,0.88724 0.0562,1.14128 -0.19582,1.41971 -0.44166,0.48803 -0.80526,0.41521 -1.46867,-0.26926 -0.58285,-0.60134 -0.59823,-0.60264 -0.31821,-1.27284 0.37203,-0.89039 0.36988,-1.26222 -0.0734,-1.88479 -0.48889,-0.68661 -0.82641,-0.65275 -1.51762,0.14686 l -0.56299,0.6609 -1.68897,-1.00359 c -0.92452,-0.54771 -2.05387,-1.13157 -2.49673,-1.29732 -0.44287,-0.16575 -2.24372,-1.41001 -4.01437,-2.76599 -3.12794,-2.39541 -3.29486,-2.47648 -5.36064,-3.2066 -1.98936,-0.70311 -2.15015,-0.74873 -2.54569,-0.48955 -0.50465,0.33066 -0.49276,0.43035 -0.0979,1.5421 0.29614,0.8338 0.29043,0.87167 -0.049,1.24837 -0.61037,0.67748 -0.99898,0.71246 -3.15764,0.24478 -1.11981,-0.24262 -2.21269,-0.4196 -2.42331,-0.36717 -0.21061,0.0524 -1.84105,0.97151 -3.64719,2.03166 -2.87084,1.6851 -3.34317,2.02565 -3.62271,2.61912 -0.54547,1.15807 -0.55778,1.62771 -0.0979,2.05614 0.53887,0.50203 0.74982,0.46676 1.78688,-0.17135 0.47965,-0.29512 0.96653,-0.51403 1.07702,-0.51403 0.1105,0 0.56564,0.33064 1.00359,0.73433 0.43796,0.4037 1.33224,0.95344 1.9827,1.24837 1.04401,0.47338 1.3159,0.52406 2.34987,0.4406 0.6442,-0.052 1.36959,-0.14007 1.61554,-0.19582 0.37875,-0.0859 0.71783,0.16043 2.22748,1.59106 2.22491,2.10844 2.06628,2.32273 -0.80777,1.00359 l -2.00718,-0.93016 -0.73434,0.56299 c -1.3488,1.02047 -1.39203,1.01529 -2.96181,0.36717 l -1.41971,-0.56299 -2.76599,0.34269 c -2.12234,0.26978 -2.93716,0.45614 -3.4269,0.75881 -0.60251,0.37238 -0.66089,0.37057 -1.07702,0.0979 -0.24336,-0.15945 -0.4406,-0.33033 -0.4406,-0.39164 0,-0.0613 0.36507,-0.50584 0.80777,-0.97912 0.4427,-0.47327 0.80776,-0.92037 0.80776,-1.00359 0,-0.0832 -0.25934,-0.49279 -0.56299,-0.90568 -0.36276,-0.49329 -0.69182,-0.75881 -0.95463,-0.75881 -0.21998,0 -1.11168,0.34745 -2.00718,0.78329 l -1.64005,0.80777 -0.68538,-0.34269 c -0.37249,-0.1899 -0.84678,-0.34269 -1.07703,-0.34269 -0.54451,0 -1.83406,0.71532 -1.83583,1.02807 -0.002,0.28932 0.82311,1.38938 2.00718,2.66808 0.47281,0.51061 0.85672,1.05177 0.85672,1.19941 0,0.18694 -0.0726,0.61457 0.12239,1.1015 6.78529,1.7306 13.89802,2.64361 21.22226,2.64361 47.27331,0 85.59889,-38.32558 85.59889,-85.59889 0,-0.89465 -0.0217,-1.78005 -0.0489,-2.66809 -0.0811,-0.30162 -0.17448,-0.46187 -0.31821,-0.48955 -0.0561,-0.0108 -0.10305,-0.007 -0.14687,0 z m -51.67265,76.49315 c 0.5159,0.011 0.69431,0.19412 0.68538,0.53851 -0.011,0.42395 -2.96194,2.4415 -4.03884,2.76599 -0.48646,0.14658 -2.04936,0.70877 -3.47585,1.24837 -2.96091,1.12003 -3.92396,1.30246 -4.77317,0.93015 -0.90337,-0.39604 -0.84036,-0.51296 1.00359,-1.90926 1.07408,-0.81333 1.77501,-1.16617 3.67167,-1.83584 1.28705,-0.45444 3.17637,-1.02846 4.21018,-1.27285 1.33753,-0.31612 2.20113,-0.47604 2.71704,-0.46507 z m -29.98532,1.68897 c 0.1389,0.01 0.31276,0.0727 0.58747,0.19583 0.36666,0.16433 1.49171,0.37862 2.49674,0.46508 1.41379,0.12162 1.93,0.23954 2.34987,0.53851 0.51775,0.36867 0.70451,0.7868 0.41612,0.95463 -0.0738,0.0429 -1.16886,0.12815 -2.44778,0.19582 l -2.32539,0.12239 -0.80777,-0.90568 c -0.96218,-1.09 -0.99251,-1.12419 -0.63642,-1.41971 0.1147,-0.0952 0.22826,-0.15682 0.36716,-0.14687 z m 0.75882,3.35346 c 0.32408,-0.0412 0.78148,0.0281 1.46866,0.19583 0.73784,0.18008 1.88878,0.33877 2.5457,0.34269 1.07281,0.007 1.2336,0.0418 1.56658,0.46507 0.51159,0.65038 0.46952,1.10088 -0.12239,1.34628 -1.4409,0.59745 -4.76267,0.37753 -5.53199,-0.36716 -0.47124,-0.45616 -0.69677,-1.10522 -0.53851,-1.51763 0.10288,-0.2681 0.28786,-0.4239 0.61195,-0.46508 z M 97.783213,87.513801 c 2.094821,-1.62816 2.261987,-1.79939 2.11941,-2.17094 -0.113891,-0.29679 -1.77384,-0.32658 -2.501557,-0.0449 -0.276945,0.10721 -1.026728,0.24807 -1.666186,0.31302 l -1.16265,0.11811 -0.05391,1.03724 c -0.04217,0.8115 0.02913,1.17158 0.327609,1.65454 0.209832,0.33952 0.515809,0.61688 0.679947,0.61637 0.164138,-5.4e-4 1.179936,-0.68607 2.25733,-1.52345 z m 57.700367,9.64811 c 0.44061,-1.02787 0.43845,-1.12154 -0.0375,-1.62819 -0.54286,-0.57785 -0.94918,-0.51701 -1.39809,0.20935 -0.4304,0.69637 -0.36985,1.18192 0.22892,1.83612 0.54198,0.59216 0.81439,0.49796 1.2067,-0.41728 z m 25.56979,0.83211 c 0.78362,-0.31763 0.82492,-0.31688 1.7354,0.0315 1.16344,0.44522 1.80107,0.32654 1.93219,-0.35966 0.0514,-0.26904 0.22269,-1.04223 0.38067,-1.71821 0.24086,-1.03078 0.24787,-1.25395 0.0434,-1.38349 -0.34481,-0.21846 -1.2839,-0.19648 -4.39526,0.10284 -1.49628,0.14395 -3.22685,0.21632 -3.8457,0.16084 -1.01363,-0.0909 -1.14775,-0.0633 -1.35286,0.27847 -0.41505,0.69157 0.50692,1.71387 1.75854,1.94991 0.43694,0.0824 1.1969,0.40329 1.68879,0.71307 1.03766,0.65351 1.00555,0.65 2.05482,0.22469 z m -86.212836,1.06084 c 0.481826,-0.48182 0.450577,-0.79344 -0.134152,-1.33778 -0.669612,-0.62335 -0.987489,-0.51163 -1.169988,0.4112 -0.237991,1.20344 0.501723,1.729 1.30414,0.92658 z m 2.999708,8.764339 c 0.321736,-0.19616 0.676339,-0.55718 0.788007,-0.80227 0.185072,-0.40619 0.125074,-0.52887 -0.678155,-1.38665 -0.484653,-0.51756 -1.477287,-1.64533 -2.205854,-2.50614 -1.288138,-1.52195 -1.345991,-1.56511 -2.097969,-1.56511 -0.579255,0 -0.773299,0.0696 -0.773299,0.27728 0,0.25935 2.860994,5.6279 3.260023,6.1173 0.270034,0.33119 1.043454,0.27031 1.707247,-0.13441 z m 75.076748,1.42047 c 2.69751,-0.12838 4.09451,-0.26667 4.44193,-0.43973 0.45668,-0.22749 0.63508,-0.2094 1.80353,0.18283 l 1.29673,0.4353 2.80099,-0.5196 c 1.54054,-0.28578 2.88706,-0.57279 2.99224,-0.63781 0.10521,-0.065 0.26922,-0.32321 0.36448,-0.57377 0.27051,-0.71149 -0.11116,-1.59854 -0.90282,-2.09829 -2.12486,-1.34136 -6.81037,-3.94117 -7.44985,-4.13363 -0.41154,-0.12385 -1.39792,-0.59381 -2.19192,-1.04435 -1.61158,-0.914439 -1.75224,-0.940549 -2.83632,-0.526539 -1.03134,0.393869 -0.9844,0.751719 0.21762,1.659259 0.54108,0.40852 0.98378,0.77383 0.98378,0.81181 0,0.23977 -1.29907,0.8229 -1.61199,0.72359 -0.46037,-0.14612 -1.9654,0.5593 -1.9654,0.92121 0,0.14442 0.0931,0.63219 0.20683,1.08394 0.27837,1.10558 0.005,1.30326 -1.80612,1.3086 -1.04531,0.003 -1.45146,0.0804 -1.79028,0.34077 -0.58052,0.44616 -0.58521,1.34172 -0.0111,2.11827 0.49822,0.6739 0.0791,0.64409 5.45764,0.38814 z m -57.89999,8.38182 c 0.11804,-0.11805 0.21463,-0.58489 0.21463,-1.03743 0,-1.03224 -0.21984,-1.25209 -1.25208,-1.25209 -1.03223,0 -1.25209,0.21985 -1.25209,1.25209 0,1.03223 0.21986,1.25208 1.25209,1.25208 0.45254,0 0.91939,-0.0966 1.03744,-0.21465 z m 28.65486,2.28075 c 0,-0.47496 -0.96768,-1.35062 -1.49256,-1.35062 -0.52986,0 -0.35274,0.82379 0.28519,1.32657 0.7539,0.59417 1.20737,0.6032 1.20737,0.024 z m 44.16144,3.20239 c 1.13659,-0.28232 0.93359,-0.10322 2.52196,-2.22505 1.00146,-1.33778 1.2588,-1.80673 1.21707,-2.21783 -0.0942,-0.92764 -0.48234,-0.96545 -2.13725,-0.20817 -0.8212,0.37578 -1.92589,0.83244 -2.45488,1.01483 -0.52901,0.18237 -1.29367,0.63423 -1.69926,1.00415 -0.4056,0.36991 -1.16002,0.86742 -1.67651,1.10559 -0.51648,0.23817 -0.93906,0.53626 -0.93906,0.66242 0,0.30882 3.17914,1.3245 3.75626,1.20006 0.24594,-0.053 0.8812,-0.20422 1.41167,-0.336 z m -31.67541,2.12899 c 0.063,-0.64836 -0.23686,-0.9128 -2.09274,-1.84561 l -1.14378,-0.57489 -0.46604,0.3476 c -0.65525,0.48873 -0.65168,0.76579 0.0198,1.5351 0.63836,0.73138 1.86098,1.19271 3.00208,1.13277 0.56272,-0.0295 0.63157,-0.0897 0.68066,-0.59497 z m 49.2686,0.45232 c 0.48556,-0.58482 0.41879,-1.8577 -0.12601,-2.40251 -0.24292,-0.24292 -0.64858,-0.43905 -0.90812,-0.43905 -0.54489,0 -1.51525,0.8798 -1.51376,1.37249 0.002,0.72672 0.37808,1.62419 0.76018,1.81509 0.55044,0.275 1.41028,0.10858 1.78771,-0.34602 z m -54.87419,0.56362 c 0.44315,-0.48968 0.28442,-0.75263 -1.04968,-1.73877 -0.64099,-0.47382 -1.16877,-0.94705 -1.17281,-1.05161 -0.004,-0.10457 0.22456,-0.41231 0.50799,-0.68386 0.28346,-0.27156 0.65316,-0.79931 0.82157,-1.17279 0.27746,-0.61532 0.28066,-0.72848 0.0341,-1.20531 -0.21594,-0.41759 -0.46225,-0.57014 -1.19295,-0.7388 -1.75263,-0.40456 -1.77801,-0.39258 -3.00661,1.41951 -0.60861,0.89763 -1.10656,1.70654 -1.10656,1.79757 0,0.091 0.12576,0.4087 0.27947,0.70593 0.27316,0.52828 0.26513,0.55787 -0.35775,1.31803 -0.35046,0.42768 -0.63719,0.85008 -0.63719,0.93864 0,0.0886 0.26159,0.29122 0.58132,0.45035 0.45449,0.22619 1.17041,0.29181 3.28135,0.30076 2.46404,0.0104 2.72782,-0.0193 3.01777,-0.33965 z m 20.4489,0.88769 c 0.55188,-0.49189 1.08797,-0.894 1.1913,-0.89358 0.10333,3.6e-4 0.5501,0.24155 0.9928,0.53585 0.4427,0.29429 0.89438,0.53541 1.00372,0.53584 0.23471,7.8e-4 2.34655,-1.14872 3.40387,-1.85297 0.49575,-0.3302 1.07572,-0.52798 1.75334,-0.59792 0.96343,-0.0994 1.00995,-0.12712 0.95849,-0.5704 -0.039,-0.33596 -0.24295,-0.55817 -0.73125,-0.79671 -0.52179,-0.25492 -0.80327,-0.58323 -1.22679,-1.43096 -0.62869,-1.25842 -1.16363,-1.90634 -1.57046,-1.90215 -0.15501,0.002 -1.93191,0.34721 -3.94867,0.76802 l -3.66681,0.76512 -2.29036,1.67673 c -1.25968,0.92219 -2.35694,1.80407 -2.43831,1.95973 -0.0814,0.15566 -0.0862,0.44399 -0.0106,0.64075 0.16958,0.4417 0.99338,1.34152 1.22819,1.34152 0.095,0 0.59713,-0.36221 1.11578,-0.80491 0.51863,-0.4427 1.04916,-0.80491 1.17893,-0.80491 0.12977,0 0.49395,0.52319 0.80928,1.16264 0.40127,0.81376 0.67398,1.16266 0.90873,1.16266 0.18446,0 0.78693,-0.40246 1.33883,-0.89435 z m 28.38845,3.15342 c 1.88206,-0.76394 2.32185,-1.00954 2.30722,-1.28844 -0.01,-0.18953 -0.24301,-1.39098 -0.5179,-2.66989 -0.33964,-1.58005 -0.50935,-2.92084 -0.52956,-4.18345 -0.0273,-1.70427 -0.0638,-1.88574 -0.44099,-2.19116 -0.44008,-0.35636 -0.69753,-0.40574 -1.02245,-0.1961 -0.20051,0.12938 -2.28437,4.16694 -2.80175,5.42855 -0.18884,0.46043 -0.4123,0.68265 -0.77629,0.77199 -0.92648,0.22738 -4.17448,1.79668 -4.17625,2.01778 -0.002,0.27117 1.62743,0.76713 2.52057,0.76713 0.62188,0 0.73237,0.0876 1.57935,1.25208 0.53992,0.74232 1.03732,1.24869 1.22171,1.24373 0.17107,-0.005 1.35742,-0.43309 2.63634,-0.95222 z m -10.56343,1.09964 c 0.39484,-0.56369 0.34576,-0.98106 -0.15385,-1.30841 -0.36246,-0.23749 -0.49246,-0.24565 -0.80491,-0.0505 -0.42075,0.26277 -0.46808,0.63579 -0.16504,1.30089 0.25582,0.56144 0.75322,0.58714 1.1238,0.058 z m -107.25779,0.71951 c 0.311657,-0.31166 0.255814,-1.2422 -0.102355,-1.70557 -0.169975,-0.21991 -0.656308,-0.58212 -1.080744,-0.80491 -0.424433,-0.2228 -2.034257,-1.18515 -3.577386,-2.13854 -2.211993,-1.36665 -2.964278,-1.93439 -3.555158,-2.68304 -0.695383,-0.88106 -5.716332,-9.41749 -6.607942,-11.23457 l -0.394955,-0.80492 0.35126,-2.59361 c 0.329949,-2.43624 0.360083,-4.60301 0.07599,-5.4643 -0.0899,-0.27256 0.05428,-0.56393 0.562392,-1.1365 l 0.683288,-0.76997 0.602319,0.83871 c 0.331275,0.4613 1.104545,1.93862 1.718378,3.28294 0.978211,2.14232 1.172962,2.45108 1.576751,2.49975 0.33572,0.0405 0.597114,-0.10011 0.963599,-0.51826 0.824507,-0.9407 7.230451,-6.60261 7.470273,-6.60261 0.277042,0 0.768822,0.53735 0.818501,0.89434 0.121332,0.87191 -0.02399,1.09949 -1.1677,1.82864 -0.639458,0.40767 -1.162651,0.86212 -1.162651,1.00989 0,0.14777 0.308975,0.63605 0.686612,1.08509 1.005804,1.19596 1.101924,1.45688 1.103636,2.99581 0.0031,2.78074 0.125509,3.23023 1.174758,4.31352 0.516805,0.53358 1.033255,0.93893 1.147665,0.90079 0.11441,-0.0381 0.463356,-0.5502 0.775432,-1.13791 0.495152,-0.9325 0.697081,-1.13039 1.585618,-1.5539 1.017645,-0.48506 1.018323,-0.48592 1.231495,-1.56946 0.11731,-0.59628 0.27605,-1.12293 0.352756,-1.17033 0.07671,-0.0474 0.310406,0.19039 0.519336,0.52845 0.569842,0.92202 1.470447,1.63188 2.612512,2.05918 l 1.02359,0.38298 0.666471,-0.46187 c 0.366557,-0.25403 0.835575,-0.64187 1.042262,-0.86188 0.357426,-0.38046 0.363391,-0.44703 0.122039,-1.36194 -0.168557,-0.63898 -0.466878,-1.1802 -0.888542,-1.61202 -0.349134,-0.35755 -0.634788,-0.77994 -0.634788,-0.93864 0,-0.1587 0.280961,-0.62485 0.624358,-1.03586 0.690097,-0.826 0.658549,-1.13724 -0.170321,-1.68033 -0.421475,-0.27617 -0.496184,-0.27664 -1.018494,-0.006 -0.31001,0.16032 -1.303741,1.00745 -2.208292,1.88251 -1.209628,1.17021 -1.76731,1.59105 -2.108428,1.59105 -0.255084,0 -0.507327,-0.0704 -0.560538,-0.15655 -0.05321,-0.0861 0.555265,-0.9088 1.352169,-1.82822 l 1.448918,-1.67168 -0.09915,-1.16784 c -0.05453,-0.64231 -0.351582,-2.57643 -0.660109,-4.298049 -0.353738,-1.9739 -0.558168,-3.69801 -0.553403,-4.66728 0.0063,-1.27653 -0.0508,-1.59972 -0.336739,-1.90664 l -0.344298,-0.36974 -1.215505,0.49269 c -0.66853,0.27097 -1.899682,0.71961 -2.735895,0.99698 -1.636727,0.54288 -2.047493,0.86298 -6.367373,4.96191 -0.907211,0.86081 -1.687202,1.565109 -1.733317,1.565109 -0.04611,0 -0.467416,-0.448979 -0.936227,-0.997729 l -0.852384,-0.99772 0.03411,-1.28854 c 0.04975,-1.8797 0.04556,-1.88231 -4.619068,-2.87583 -2.107345,-0.44885 -4.045226,-0.81608 -4.3064,-0.81608 -0.560649,0 -0.922444,0.36744 -2.025366,2.05699 -1.007727,1.54373 -1.124412,1.98796 -0.754627,2.87298 l 0.287433,0.68792 -0.876818,0.87682 c -0.804793,0.804799 -0.91091,0.858569 -1.291862,0.654689 -0.344867,-0.18456 -0.719362,-0.15249 -2.214792,0.18967 -0.98986,0.22648 -1.955927,0.55682 -2.146816,0.73408 -0.338594,0.31443 -0.339439,0.35468 -0.03457,1.64788 0.390419,1.65607 0.863379,2.18478 1.797605,2.00952 1.045325,-0.19611 1.61172,0.23411 2.316504,1.75952 0.336004,0.72724 0.70328,1.59146 0.816172,1.92048 0.139443,0.40642 0.612183,0.91369 1.474354,1.58203 1.313739,1.01839 1.485439,1.26049 1.659448,2.3399 0.158816,0.98515 0.938689,2.13491 5.510417,8.12395 5.520701,7.23223 6.41231,8.14778 9.791843,10.05487 1.426482,0.80497 2.718366,1.46776 2.870852,1.47289 0.152487,0.005 0.373837,-0.0873 0.491891,-0.20533 z m 5.148911,2.81072 c 0.08829,-0.35176 -0.08274,-0.70686 -0.818436,-1.69926 -0.815753,-1.10039 -1.000699,-1.25456 -1.504971,-1.25456 -0.782921,0 -1.162363,0.33008 -1.220504,1.06173 -0.04758,0.59871 -0.0096,0.63654 1.471553,1.46776 0.836214,0.46927 1.61947,0.85677 1.740568,0.86112 0.121099,0.005 0.270404,-0.1922 0.33179,-0.43679 z m 115.727309,1.07045 c 3.56862,-0.96716 3.74052,-1.04865 4.06924,-1.92901 0.59868,-1.60328 0.58541,-2.28705 -0.0511,-2.62766 -0.25441,-0.13615 -0.49635,-0.0442 -1.10583,0.42031 -1.07541,0.81963 -3.10465,1.83707 -4.17867,2.09516 -1.26101,0.30302 -1.51613,0.46724 -1.80687,1.16305 -0.33516,0.80218 -0.16486,1.50448 0.36483,1.50448 0.2185,0 1.43726,-0.28185 2.70835,-0.62633 z m -18.849,2.4216 c 0.99064,-1.01866 1.28745,-1.68207 0.82203,-1.8372 -0.16602,-0.0554 -0.16064,-0.29943 0.0235,-1.06714 0.13134,-0.54745 0.17829,-1.09326 0.10435,-1.2129 -0.19504,-0.31559 -1.1621,-0.68599 -1.53584,-0.58825 -0.34456,0.0901 -0.879,1.05483 -0.88401,1.59574 -0.002,0.18188 -0.15685,0.92285 -0.34481,1.64657 -0.18797,0.72373 -0.29508,1.44816 -0.23806,1.60983 0.14437,0.40928 0.60428,0.92 0.82846,0.92 0.1029,0 0.65387,-0.48 1.22436,-1.06665 z m 4.49243,2.26794 c 1.19035,-1.33537 1.32268,-1.87085 0.63277,-2.56076 l -0.42852,-0.42853 -0.63985,0.43478 c -1.0539,0.71615 -1.8103,3.02751 -1.19285,3.64497 0.31687,0.31687 0.45849,0.22203 1.62845,-1.09046 z m -67.06732,7.37145 c 0.25922,-0.2039 0.4713,-0.4603 0.4713,-0.5698 0,-0.28044 -0.7317,-1.02704 -1.00655,-1.02704 -0.22386,0 -0.6003,1.03414 -0.60227,1.65454 -0.002,0.42757 0.55657,0.39927 1.13752,-0.0577 z m -13.74958,2.7695 c 0.24637,-0.16142 0.44794,-0.3915 0.44794,-0.51129 0,-0.62808 -3.3113,-2.40474 -3.99378,-2.14285 -0.41805,0.16042 -1.04012,1.14644 -0.98121,1.55528 0.0444,0.30782 0.37429,0.5106 1.57648,0.96889 1.59692,0.60877 2.18062,0.63448 2.95057,0.12997 z m 97.25204,-0.55192 c 1.2502,-1.28347 5.85978,-7.25643 5.86358,-7.59789 0.003,-0.29391 -0.81768,-0.68826 -1.43285,-0.68826 -0.17024,0 -0.65802,0.46283 -1.08394,1.0285 -0.42593,0.56567 -1.75661,2.21568 -2.95709,3.66668 -1.74115,2.1045 -2.20754,2.78521 -2.30549,3.36498 -0.0947,0.56074 -0.0523,0.80465 0.18564,1.06759 0.38198,0.42208 0.60479,0.31371 1.73015,-0.8416 z m -11.21928,2.4506 c 0.29734,-0.32856 0.29937,-0.38404 0.0291,-0.79656 -0.34152,-0.5212 -1.32865,-0.76753 -1.88423,-0.4702 -0.50794,0.27184 -0.47692,0.43452 0.20475,1.07341 0.67328,0.63102 1.1986,0.69257 1.65039,0.19335 z m -78.08068,3.64852 c 0.67429,-0.60918 0.71065,-0.69681 0.76071,-1.83341 l 0.0526,-1.19366 1.12626,0 c 1.02319,0 1.15259,-0.0429 1.41401,-0.46939 0.15826,-0.25815 0.2417,-0.58939 0.18541,-0.73608 -0.105,-0.27363 -3.03864,-2.37663 -4.03177,-2.8902 -0.68486,-0.35416 -1.53213,-0.37015 -1.81095,-0.0342 -0.16132,0.19437 -0.13905,0.61614 0.0968,1.83341 0.16846,0.86953 0.31325,2.43388 0.32177,3.47633 0.0216,2.648 0.49038,3.10732 1.88521,1.84718 z m 84.06906,0.68447 c 0.74638,-0.90242 1.35926,-2.90662 0.88884,-2.90662 -0.2749,0 -2.66964,1.57268 -2.66964,1.75322 0,0.0828 0.12831,0.52716 0.28512,0.98738 0.35554,1.04346 0.73513,1.08559 1.49568,0.16602 z m -74.69404,12.28419 c 0.67088,-0.52771 1.41787,-1.86549 1.28152,-2.29508 -0.0614,-0.19336 -0.93286,-0.91329 -1.93664,-1.59984 -1.00378,-0.68655 -1.95614,-1.40572 -2.11635,-1.59815 -0.19379,-0.23276 -0.63126,-0.39236 -1.30682,-0.47676 -0.94426,-0.11798 -1.08699,-0.0846 -2.034,0.47643 -0.62206,0.36848 -1.03903,0.74386 -1.07126,0.96442 -0.0309,0.21153 0.24892,0.74002 0.67558,1.27587 0.57865,0.72676 1.03961,1.06337 2.24282,1.63782 0.83296,0.39768 1.93648,1.00724 2.45225,1.35458 1.09544,0.73771 1.18933,0.75122 1.8129,0.26071 z m -15.12467,-0.0471 c 0.0427,-0.49947 0.22192,-0.78812 0.79238,-1.27642 0.80882,-0.69231 1.13012,-0.74269 2.7113,-0.42515 0.88624,0.17798 1.06405,0.16677 1.31364,-0.0828 0.26566,-0.26564 0.26118,-0.34002 -0.0561,-0.93267 -0.66662,-1.2453 -1.30922,-1.87338 -1.91665,-1.87338 -0.79127,0 -4.61614,2.30409 -5.10402,3.07464 -0.34819,0.54993 -0.35125,0.60193 -0.0645,1.09416 0.1656,0.28423 0.57065,0.75492 0.90011,1.04597 0.54594,0.48229 0.63312,0.50668 0.98378,0.27515 0.25073,-0.16555 0.404,-0.47888 0.43999,-0.89947 z m -33.223726,3.27351 c 0.249177,-0.13336 0.34598,-0.37595 0.34598,-0.86707 0,-0.56221 -0.204895,-0.95355 -1.167248,-2.22939 -0.857521,-1.13687 -1.210078,-1.77299 -1.328662,-2.3973 -0.183065,-0.96377 -0.48608,-1.83359 -0.638759,-1.83359 -0.05651,0 -0.339432,0.1224 -0.628715,0.27199 -0.487769,0.25223 -0.646205,0.2374 -2.181358,-0.20425 -1.450263,-0.41723 -1.750013,-0.45093 -2.419055,-0.27199 -1.032604,0.27618 -1.018737,0.27896 -1.73267,-0.34788 -0.503179,-0.44179 -0.736754,-0.88901 -1.168874,-2.238 -0.614442,-1.91817 -0.642904,-2.1927 -0.277418,-2.67592 0.472513,-0.62471 0.318388,-1.61318 -0.575638,-3.69181 -0.467296,-1.08647 -0.952467,-2.01535 -1.078158,-2.06418 -0.319265,-0.12405 -5.068435,2.04612 -5.450572,2.49067 -0.635541,0.73934 -0.417527,1.32365 1.589333,4.25964 3.07673,4.50118 4.360582,6.23755 4.68179,6.33197 0.166278,0.0489 1.205868,0.22463 2.310199,0.39054 1.676737,0.25192 2.188582,0.26612 3.10361,0.0861 0.602655,-0.11856 1.205858,-0.25782 1.34045,-0.30947 0.445053,-0.17078 1.321393,1.0653 1.985222,2.80019 1.055426,2.75829 0.999595,2.68492 2.043051,2.68492 0.495833,0 1.057203,-0.0833 1.247492,-0.18516 z m 92.037756,-0.0905 c 0.23847,-0.36397 0.25787,-0.54212 0.0974,-0.89435 -0.16168,-0.35486 -0.33171,-0.43985 -0.87992,-0.43985 -0.72772,0 -1.47458,0.40393 -1.47458,0.79749 0,0.31681 1.0545,0.98437 1.56097,0.9882 0.23151,0.002 0.52306,-0.18735 0.69614,-0.45149 z m -7.69805,0.71294 c 0.87817,-0.20366 1.40659,-0.45519 1.9728,-0.93906 0.42535,-0.3635 0.77601,-0.76623 0.77923,-0.89497 0.003,-0.12875 -0.24021,-0.54029 -0.54097,-0.91454 -0.49027,-0.61008 -0.67425,-0.70151 -1.77843,-0.88387 -0.67738,-0.11186 -1.66581,-0.20339 -2.19652,-0.20339 -0.84217,0 -1.0938,0.0923 -1.97783,0.72532 -1.04173,0.74598 -1.20092,1.0424 -0.75743,1.41045 0.19918,0.16531 0.37451,0.15044 0.79601,-0.0675 0.70151,-0.36276 0.96533,-0.35242 1.4718,0.0577 0.33341,0.26999 0.37405,0.38835 0.20376,0.59351 -0.16695,0.20118 -0.14869,0.34982 0.0849,0.69126 0.25084,0.36669 0.57819,0.68985 0.70965,0.70056 0.0185,0.002 0.57336,-0.12244 1.23305,-0.27543 z m -41.06272,0.72194 c 0.69064,-1.00381 0.61434,-1.30392 -0.56937,-2.2396 -1.28496,-1.0157 -1.58841,-0.95766 -2.36323,0.45196 -0.35077,0.63814 -0.59621,1.26195 -0.54542,1.38624 0.23806,0.58259 1.27743,1.03851 2.70687,1.18736 0.11824,0.0123 0.46525,-0.34137 0.77114,-0.78596 z m -40.069097,2.54031 c 0.785672,-0.38399 0.806199,-0.41567 0.858791,-1.32561 0.06029,-1.04314 -0.130112,-1.52432 -0.768763,-1.94277 -0.413472,-0.27092 -0.472381,-0.2568 -1.245793,0.29863 -0.44649,0.32064 -0.811798,0.68611 -0.811798,0.81216 0,0.24637 0.334616,1.97965 0.453385,2.3485 0.103457,0.32129 0.592248,0.25967 1.514178,-0.19091 z m 73.877947,5.8335 c 1.00711,-0.69412 1.11853,-1.17735 0.36171,-1.56872 -0.68098,-0.35214 -1.51756,-0.34849 -1.87425,0.008 -0.37723,0.37723 -0.36557,0.42923 0.26856,1.19855 0.63066,0.76508 0.65067,0.77091 1.24398,0.36198 z m -59.774109,-0.054 c 0.678596,-0.49157 0.742314,-0.606 0.742314,-1.3331 0,-0.85462 -0.293781,-1.68958 -0.610037,-1.7338 -0.10718,-0.015 -0.275365,-0.046 -0.373743,-0.0688 -0.09838,-0.0229 -0.312766,-0.0508 -0.476417,-0.0622 -0.163651,-0.0114 -0.546539,-0.35921 -0.850863,-0.77303 -0.757795,-1.03044 -0.529826,-1.11061 2.200954,-0.77401 1.22401,0.15088 2.747732,0.27431 3.38605,0.27431 1.547311,0 10.631601,-1.03531 11.263331,-1.28365 0.61042,-0.23997 1.9167,-1.6891 1.9167,-2.12632 0,-0.36073 -0.76791,-1.33924 -1.256,-1.60046 -0.25372,-0.13579 -0.52628,-0.0202 -1.26991,0.53855 l -0.94684,0.71144 -0.45477,-0.42653 c -0.25012,-0.23459 -0.87675,-0.60551 -1.3925,-0.82427 -1.1014,-0.46715 -1.1228,-0.45848 -2.87771,1.16625 -0.59524,0.55109 -1.34862,1.08223 -1.67419,1.18031 -0.32556,0.0981 -1.65961,0.22669 -2.964551,0.28577 -1.441213,0.0652 -2.491698,0.19449 -2.675955,0.32922 -0.252421,0.18457 -0.399787,0.14824 -0.877991,-0.21651 -0.31606,-0.24107 -0.653998,-0.66591 -0.75097,-0.94409 -0.244137,-0.70033 -2.187619,-2.27559 -3.117041,-2.52646 -1.042424,-0.28138 -2.743298,-0.51698 -3.710057,-0.51393 -0.656895,0.002 -0.999723,0.14121 -1.864286,0.7566 -0.582655,0.41473 -1.087407,0.83958 -1.121669,0.94413 -0.09616,0.29342 1.100667,2.04523 3.512003,5.14056 2.306506,2.96077 3.153415,3.81253 4.149073,4.17284 0.933045,0.33765 1.294446,0.28715 2.095075,-0.29283 z m 44.292399,-2.85192 c -0.35126,0.67926 -0.99389,0.70339 -1.50281,0.0564 -0.44143,-0.56119 -0.46538,-0.97326 -0.0978,-1.68402 0.35184,-0.68036 0.8253,-0.67277 1.41045,0.0226 0.53598,0.63699 0.56484,0.88047 0.19018,1.60499 z m 3.84991,-4.14229 c -1.05798,0.63517 -2.40112,0.40312 -4.1454,-0.71619 -0.81661,-0.52401 -1.05843,-0.91112 -0.70543,-1.12929 0.32784,-0.20238 0.32869,-1.08856 0.002,-2.03711 -0.1861,-0.54089 -0.33835,-1.08867 -0.33835,-1.21729 0,-0.28692 1.22268,-1.14109 1.63336,-1.14109 0.16404,0 0.72236,0.2854 1.24071,0.63423 1.10113,0.741 1.31959,0.65213 1.56952,-0.63846 0.28937,-1.49429 0.92328,-2.51281 2.05945,-3.30903 0.75484,-0.52898 1.21567,-1.03077 1.64934,-1.79592 0.72057,-1.27135 1.09541,-1.35977 1.46821,-0.34634 0.15538,0.42243 0.49188,0.86315 0.82153,1.07603 0.74472,0.48092 0.77282,0.93355 0.11433,1.84255 l -0.54855,0.75726 0.49629,-0.12697 c 1.02807,-0.26303 1.17341,-0.18813 1.96443,1.01229 0.42136,0.63947 0.76371,1.32364 0.76057,1.52039 -0.0181,1.16698 -1.78365,2.613 -4.57172,3.74425 -1.17081,0.47505 -2.28972,1.00573 -2.48648,1.17929 -0.19676,0.17355 -0.63946,0.48468 -0.98378,0.6914 z m 13.06054,-15.5869 c -0.81994,1.10676 -1.53833,2.00987 -1.59638,2.00752 -0.27926,-0.0126 -1.10315,-0.65124 -1.18898,-0.92167 -0.13907,-0.43818 1.62587,-4.38836 2.36326,-5.28928 0.84993,-1.03841 1.20288,-0.99417 1.80123,0.22584 0.60927,1.2423 0.57578,1.33887 -1.37913,3.97759 z m -8.96028,0.85678 c -0.47758,0.24201 -0.93137,0.43678 -1.00845,0.43286 -0.37931,-0.0194 -1.12387,-0.57615 -1.12387,-0.84041 0,-0.16474 0.33382,-0.77543 0.74182,-1.35708 0.68366,-0.9746 0.72859,-1.10848 0.57303,-1.70703 -0.12075,-0.46468 -0.097,-0.91201 0.0834,-1.57214 0.24596,-0.9001 0.23633,-0.97006 -0.39418,-2.86224 -0.87696,-2.63186 -0.86444,-2.80614 0.24212,-3.36686 0.48861,-0.2476 1.03601,-0.45019 1.21643,-0.45019 0.41884,0 1.11481,1.39223 1.11481,2.2301 0,0.75698 0.24444,0.92606 0.80648,0.55779 0.62309,-0.40826 1.02859,-0.35214 1.57478,0.21796 0.52579,0.5488 0.6341,1.10814 0.21458,1.10814 -0.3232,0 -1.09185,1.17324 -1.63242,2.49159 -0.37568,0.91628 -0.38249,1.01046 -0.12045,1.6654 0.20515,0.51267 0.22967,0.79659 0.0938,1.0858 -0.36482,0.77659 -1.531,1.93516 -2.38184,2.36631 z m 21.22066,-1.0746 c -0.43446,0.32874 -0.64021,0.32974 -1.10316,0.005 -0.20201,-0.14149 -0.76323,-0.28231 -1.24716,-0.31302 -0.79497,-0.0504 -0.88503,-0.10018 -0.93343,-0.51626 -0.0443,-0.38035 0.18842,-0.66946 1.33692,-1.6612 0.76477,-0.66038 1.5748,-1.24694 1.80007,-1.30349 0.73918,-0.18553 3.62418,1.95296 3.62418,2.68637 0,0.0551 -0.24981,0.38486 -0.55514,0.7326 -0.59347,0.67593 -1.2145,0.81797 -1.5913,0.36396 -0.2807,-0.33842 -0.87968,-0.33586 -1.33098,0.005 z m -31.45722,-1.27107 c -0.10736,0.32248 -0.52281,0.2859 -1.64414,-0.14476 -1.21446,-0.46643 -1.47341,-0.94559 -0.77529,-1.43457 0.70141,-0.49128 1.15167,-0.35683 1.84472,0.55083 0.35126,0.46002 0.60988,0.92285 0.57471,1.0285 z m 47.54269,-1.32475 c -0.24718,0.39156 -0.53257,0.71193 -0.63418,0.71193 -0.24571,0 -1.06284,-0.82558 -1.06284,-1.07383 0,-0.22328 1.36114,-0.88354 1.83341,-0.88981 0.43651,-0.005 0.39047,0.4171 -0.13639,1.25171 z m -22.14252,-3.04411 c -0.85786,0.49189 -1.58692,0.89435 -1.62021,0.89435 -0.21149,0 -1.58594,-1.14819 -1.84171,-1.53853 -0.29648,-0.45255 -0.29489,-0.48311 0.0383,-0.72703 0.19128,-0.14003 1.07221,-0.6214 1.95762,-1.0697 1.40122,-0.70948 1.6726,-0.79049 2.09439,-0.62526 0.66665,0.26117 1.61063,2.17182 1.07302,2.17182 -0.0779,0 -0.84355,0.40246 -1.7014,0.89435 z m -6.63773,-0.38803 c -1.24608,0.89487 -1.467,0.76382 -1.0001,-0.59325 0.61682,-1.79281 0.80568,-1.9701 1.4318,-1.34399 0.61767,0.61767 0.4675,1.29148 -0.4317,1.93724 z m 6.05733,-10.58487 c -0.34915,0.62432 -0.69126,1.13034 -0.76019,1.12408 -0.069,-0.006 -0.57973,-0.25532 -1.13502,-0.55388 -0.62661,-0.33691 -1.42584,-0.59191 -2.10683,-0.67221 -0.97754,-0.11526 -1.18443,-0.21498 -1.89702,-0.91431 -1.12891,-1.10796 -1.09027,-1.51215 0.28112,-2.9403 l 1.08092,-1.12566 -1.43866,-0.84342 c -0.79124,-0.46388 -1.43865,-0.94991 -1.43865,-1.08004 0,-0.13692 0.60631,-0.43853 1.43901,-0.71585 1.5338,-0.5108 1.78985,-0.50192 3.21701,0.11169 0.78506,0.33754 0.85059,0.42914 2.10172,2.93846 0.71026,1.42454 1.29139,2.80297 1.29139,3.06319 0,0.26022 -0.28566,0.98393 -0.6348,1.60825 z m -35.06585,42.01986 c 0.94092,-1.31859 1.59454,-1.89152 2.15791,-1.89152 0.2168,0 1.23221,0.41082 2.25646,0.91293 1.99591,0.97845 2.52263,1.04153 4.32173,0.51766 0.79117,-0.23039 0.81786,-0.36724 0.22358,-1.14639 -0.57543,-0.75443 -0.56306,-1.00059 0.0813,-1.61792 l 0.52847,-0.50631 0.6404,0.56227 c 0.76499,0.67167 1.13301,0.6982 2.01775,0.14542 1.60749,-1.00434 2.80743,-1.49474 3.46402,-1.41572 0.72727,0.0875 1.40661,-0.19364 1.40661,-0.58215 0,-0.32856 -0.5578,-0.62605 -1.17383,-0.62605 -0.47228,0 -2.40516,-0.98217 -2.40189,-1.22049 0.002,-0.15677 2.29725,-1.46315 2.56601,-1.46058 0.11265,7.8e-4 1.11344,0.84906 2.22398,1.88441 1.11055,1.03535 2.08995,1.83873 2.17644,1.78527 0.20697,-0.12791 2.15424,-3.81069 2.15424,-4.0742 0,-0.11215 -0.20663,-0.41958 -0.45916,-0.68318 l -0.45917,-0.47926 0.49173,-0.3868 c 0.27455,-0.21595 0.61559,-0.339 0.7722,-0.2786 0.97267,0.37523 1.82884,0.50061 2.28857,0.33517 0.46263,-0.16649 0.4922,-0.23741 0.43888,-1.05298 -0.0317,-0.48525 0.0457,-1.06664 0.1739,-1.30621 0.2099,-0.39223 0.30879,-0.42142 1.08087,-0.319 1.00326,0.13309 0.82079,0.59374 1.58011,-3.98912 0.29945,-1.80723 0.67282,-3.53414 0.82974,-3.83758 0.70589,-1.36505 3.17359,-5.25012 3.52058,-5.5427 0.6797,-0.57311 1.44925,-1.01598 1.76658,-1.01667 0.57281,-0.002 0.9062,0.80673 0.87317,2.11599 -0.0305,1.2083 -0.0299,1.20976 1.07569,2.80469 0.6084,0.87766 1.27755,1.92033 1.48701,2.31705 l 0.38081,0.72129 2.63844,-0.0495 c 2.21718,-0.0416 2.86138,-0.11993 4.03455,-0.49053 1.50497,-0.47542 1.8274,-0.72799 2.16493,-1.69584 0.18885,-0.5415 0.1435,-1.00583 -0.33574,-3.43844 -0.65697,-3.33475 -0.66035,-3.41269 -0.18174,-4.18711 0.28913,-0.46782 0.49247,-0.60244 0.91001,-0.60244 0.29572,0 1.05007,-0.28655 1.67634,-0.63679 0.93912,-0.52518 1.20284,-0.60244 1.50474,-0.44088 0.20133,0.10775 0.36605,0.23569 0.36605,0.28432 0,0.0486 -0.32213,0.49591 -0.71583,0.99399 -0.39371,0.49808 -0.66559,0.98687 -0.60421,1.0862 0.24717,0.39994 1.37054,0.68072 2.72335,0.68072 1.61434,0 1.71793,0.071 1.87601,1.28492 0.10384,0.79736 0.0581,0.91537 -0.94829,2.44808 -0.91266,1.3899 -1.15069,1.63623 -1.73893,1.79957 -0.37484,0.10409 -0.81214,0.18971 -0.97177,0.19025 -0.15964,5.4e-4 -0.60575,0.34328 -0.99136,0.76162 -0.55483,0.60192 -0.87682,1.25824 -1.54317,3.14548 -0.46314,1.31167 -0.84206,2.56312 -0.84206,2.78099 0,0.87185 0.87213,1.04987 2.634,0.53768 0.79921,-0.23234 1.29723,-0.56814 2.58647,-1.74397 0.87817,-0.80093 2.19802,-1.99955 2.93301,-2.66361 l 1.33635,-1.20736 1.23443,0 c 0.80602,0 1.31646,0.0845 1.47081,0.24337 0.13,0.13386 0.45833,0.49607 0.72962,0.80491 0.27131,0.30884 0.57035,0.56154 0.66454,0.56154 0.20121,0 0.72419,-0.44052 3.87771,-3.26633 1.29385,-1.1594 2.39877,-2.22871 2.45539,-2.37624 0.12324,-0.32117 -0.5373,-1.03586 -0.8392,-0.90799 -0.11682,0.0495 -1.43707,0.4914 -2.93387,0.98204 -1.57219,0.51535 -3.05878,1.12414 -3.52019,1.4416 -0.43928,0.30224 -0.91284,0.54954 -1.05234,0.54954 -0.1395,0 -0.39088,-0.30437 -0.55863,-0.67637 -0.25594,-0.56758 -0.2734,-0.81928 -0.1086,-1.5651 0.48804,-2.20863 0.4383,-2.13084 2.0478,-3.20177 1.70847,-1.13678 1.68154,-1.07989 1.74111,-3.6791 0.0424,-1.84975 -0.0684,-2.20269 -0.91484,-2.91495 l -0.53403,-0.44937 -1.61791,0.41167 -1.61793,0.41167 -0.31152,-0.4042 c -0.17136,-0.22232 -0.55301,-0.81526 -0.84814,-1.31765 -0.29514,-0.50241 -0.64181,-0.95539 -0.77038,-1.00664 -0.12856,-0.0512 -0.9458,0.27893 -1.81609,0.73374 -1.11434,0.58237 -1.70647,0.79538 -2.0021,0.72022 -0.6551,-0.16658 -1.79671,-1.79598 -3.12331,-4.45781 -1.12588,-2.25904 -1.19468,-2.46283 -0.93281,-2.76194 0.17219,-0.19663 0.32996,-0.84765 0.40341,-1.66447 0.0663,-0.73783 0.20555,-1.84567 0.30933,-2.46187 0.32596,-1.93537 -0.01,-2.38179 -1.22591,-1.63017 -0.49198,0.30407 -0.76339,0.3545 -1.36262,0.25319 -2.04423,-0.34558 -1.89148,-0.36673 -2.64173,0.36585 -0.38509,0.37603 -0.70017,0.84142 -0.70017,1.0342 0,0.19277 0.24846,0.73766 0.55211,1.21086 0.51559,0.80347 0.53782,0.90507 0.33613,1.53606 -0.30422,0.95179 -0.38771,0.99821 -1.20624,0.6707 -0.40091,-0.16042 -0.91594,-0.26517 -1.14451,-0.23278 -0.65508,0.0928 -0.67273,1.36605 -0.0374,2.69539 0.55194,1.15476 0.64066,1.18609 2.13144,0.75271 0.92825,-0.26986 0.97286,-0.2661 1.59726,0.13415 0.49019,0.31422 0.61735,0.49649 0.53687,0.76949 -0.30728,1.0424 -0.29029,1.83617 0.0539,2.51738 0.19515,0.38625 0.58505,1.41341 0.86645,2.28257 l 0.51162,1.5803 -0.62315,0.52119 c -0.85279,0.71326 -1.27499,0.7906 -2.47616,0.45357 -1.19241,-0.33458 -2.54783,-0.37844 -2.83454,-0.0917 -0.14469,0.14467 -0.41903,-0.005 -1.01955,-0.5594 -0.4519,-0.41653 -0.82162,-0.8135 -0.82162,-0.88215 0,-0.0687 0.36181,-0.59078 0.80404,-1.16027 0.76421,-0.98416 1.34239,-2.38156 1.34239,-3.24445 0,-0.34079 -1.05609,-1.50645 -1.36486,-1.50645 -0.2347,0 -1.13582,0.62724 -1.22136,0.85016 -0.0513,0.13367 0.0267,0.5301 0.17326,0.88094 0.1466,0.35084 0.26653,0.81411 0.26653,1.02949 0,0.56498 -0.64091,1.17453 -1.23493,1.17453 -0.74959,0 -1.34852,-0.5747 -1.95939,-1.88013 -0.3,-0.64105 -0.66595,-1.21179 -0.81323,-1.26831 -0.1473,-0.0565 -0.54094,0.10556 -0.87478,0.36019 -0.74048,0.56481 -1.12122,0.58519 -1.39445,0.0746 -0.2683,-0.50131 -0.16773,-0.57601 2.76246,-2.05201 2.66777,-1.34382 2.50938,-0.93583 1.62956,-4.19775 l -0.51193,-1.89801 0.66173,-1.11087 c 0.36396,-0.61097 0.66174,-1.24116 0.66174,-1.40042 0,-0.15925 0.21888,-0.96165 0.4864,-1.78312 0.52912,-1.62472 0.49096,-1.88546 -0.34538,-2.36057 -0.57167,-0.32477 -1.17429,-0.0978 -2.67677,1.0083 -0.94514,0.69577 -1.13166,0.76734 -1.72157,0.66059 -0.84024,-0.15205 -1.37898,-0.42601 -3.23287,-1.64398 l -1.49808,-0.9842 -1.97234,0.11285 c -1.08479,0.062 -2.00491,0.14543 -2.04473,0.18524 -0.0398,0.0398 0.10893,1.00283 0.33056,2.14001 0.44311,2.27364 0.42955,2.35976 -0.55804,3.54272 l -0.47789,0.57244 -0.85172,-1.19359 c -0.46846,-0.65647 -0.95815,-1.19358 -1.0882,-1.19358 -0.13006,0 -0.73072,0.79969 -1.33478,1.77709 l -1.09831,1.77709 -1.16839,0.38882 c -1.32775,0.44185 -1.30108,0.40141 -2.39172,3.62605 -0.5777,1.70801 -0.62349,1.77859 -1.68277,2.5936 -1.31905,1.01489 -1.7151,1.39975 -1.7151,1.66662 0,0.11153 0.40246,0.59893 0.89435,1.08312 0.83063,0.81764 0.89434,0.9425 0.89434,1.75274 0,0.72761 0.062,0.89207 0.37355,0.99095 0.20545,0.0652 0.47762,0.36606 0.60481,0.66856 0.19291,0.4588 0.18751,0.67836 -0.0326,1.32423 -0.1451,0.42584 -0.33416,0.81773 -0.42017,0.87087 -0.086,0.0532 -0.50103,-0.42719 -0.92232,-1.06741 -0.42127,-0.64022 -0.86413,-1.20334 -0.98412,-1.25137 -0.11998,-0.048 -0.83857,0.19542 -1.59688,0.54098 l -1.37874,0.62831 -0.61326,-0.61329 c -0.6035,-0.60348 -0.60841,-0.62073 -0.30758,-1.07986 0.28997,-0.44255 0.28856,-0.49597 -0.0273,-1.03687 -0.42572,-0.72894 -0.68105,-0.80654 -1.08141,-0.32865 -0.17687,0.21114 -0.53444,0.49595 -0.79461,0.63293 -0.37436,0.19711 -0.61687,0.64679 -1.16265,2.15586 -0.55889,1.54533 -0.7744,1.93956 -1.13679,2.07961 -0.24595,0.095 -0.7796,0.33911 -1.1859,0.54235 l -0.73872,0.36954 -0.69224,-0.36513 c -0.38072,-0.20083 -0.9428,-0.51098 -1.24907,-0.68923 -0.55237,-0.3215 -0.57461,-0.3188 -2.77247,0.33715 -1.21861,0.36369 -2.40294,0.66069 -2.63186,0.65998 -0.65812,-0.002 -1.46191,0.924 -1.46191,1.68422 0,1.13901 1.29917,2.01736 2.66797,1.80379 0.96887,-0.15118 1.32314,-0.14622 3.68189,0.0515 1.53917,0.12902 2.07566,0.26943 3.8457,1.00649 1.13134,0.47111 2.15757,0.93838 2.28049,1.03837 0.43903,0.35715 2.55364,3.63713 2.71899,4.21743 0.1949,0.684 0.26246,0.60981 -1.85203,2.03392 -1.71322,1.15386 -2.24719,1.78031 -1.88722,2.21406 0.20548,0.24757 0.47436,0.27676 1.6833,0.18274 2.13829,-0.1663 2.17422,-0.0671 0.66271,1.82824 -0.70451,0.88345 -1.28094,1.73012 -1.28094,1.88147 0,0.34185 0.61589,0.83673 1.58541,1.27393 0.40695,0.1835 0.73989,0.40614 0.73989,0.49474 0,0.0886 -0.52862,0.40847 -1.17471,0.71081 l -1.1747,0.54972 -1.19532,2.40613 -1.19531,2.40613 -1.52039,-0.11328 -1.52039,-0.11329 -1.56217,1.36616 c -1.23245,1.07781 -1.60195,1.51392 -1.75067,2.06621 -0.20624,0.76592 -0.0497,1.26381 0.49784,1.58277 0.47779,0.27837 0.49436,0.26677 1.36783,-0.95729 z m 15.23275,7.17291 c 0.12576,-0.32774 -0.88653,-2.19965 -1.50146,-2.77648 -0.36996,-0.34702 -0.56407,-0.77083 -0.72167,-1.57572 -0.11859,-0.60557 -0.36591,-1.28974 -0.54963,-1.52039 -0.43758,-0.54936 -1.8589,-1.30899 -2.20251,-1.17713 -0.32336,0.12408 -2.64001,3.84752 -2.63768,4.23939 7.8e-4,0.18923 1.07193,0.70284 3.44322,1.65157 3.57676,1.43102 4.01819,1.55369 4.16973,1.15876 z m -53.762875,4.55724 1.699258,-0.29591 0.05424,-0.64948 c 0.04255,-0.50945 -0.123777,-0.95061 -0.771337,-2.04592 -1.051446,-1.77844 -3.698592,-5.62072 -4.136205,-6.00362 -0.183652,-0.16069 -0.807123,-0.42756 -1.385487,-0.59303 -0.578366,-0.16547 -1.289639,-0.47671 -1.580608,-0.69162 l -0.529036,-0.39075 -0.304951,0.37623 c -0.167722,0.20692 -0.411983,0.70054 -0.542802,1.09692 -0.209816,0.63575 -0.19312,0.92411 0.141637,2.44626 0.378015,1.71884 0.38395,1.72995 1.525399,2.85466 0.956107,0.9421 1.325463,1.1795 2.229959,1.43328 0.596229,0.1673 1.124855,0.37019 1.174726,0.45089 0.04987,0.0807 -0.18897,0.40117 -0.530758,0.7122 -0.341784,0.31102 -0.621429,0.63731 -0.621429,0.72509 0,0.29158 0.976852,0.89378 1.430955,0.88215 0.245945,-0.006 1.211839,-0.1446 2.146432,-0.30735 z M 218,128 c 0,49.70562 -40.29437,90 -90,90 -49.705624,0 -89.999998,-40.29438 -89.999998,-90 0,-49.705629 40.294374,-90.000001 89.999998,-90.000001 49.70563,0 90,40.294372 90,90.000001 z"
	/>
</svg>