<?xml version="1.0" encoding="UTF-8" standalone="no"?>
<!-- Created with Inkscape (http://www.inkscape.org/) by Toomai Glittershine for SmashWiki -->
<svg id="svg2" xmlns:rdf="http://www.w3.org/1999/02/22-rdf-syntax-ns#" xmlns="http://www.w3.org/2000/svg" version="1.1" xmlns:cc="http://creativecommons.org/ns#" xmlns:dc="http://purl.org/dc/elements/1.1/"
		height="256" width="256"
		viewBox="0 0 256 256">
	<metadata id="metadata7">
		<rdf:RDF>
			<cc:Work rdf:about="">
				<dc:format>image/svg+xml</dc:format>
				<dc:type rdf:resource="http://purl.org/dc/dcmitype/StillImage"/>
				<dc:title/>
			</cc:Work>
		</rdf:RDF>
	</metadata>
	<path id="mainsymbolpath" style="opacity:0.5;fill:#000000;fill-opacity:1;stroke:none"
		d="m 207.98079,174.84754 c 10.61371,19.42082 10.26254,30.01936 2.88115,34.57383 -7.38139,4.55448 -17.06567,0.12922 -25.21008,-15.84634 -12.48499,-24.48979 -15.4942,-60.18643 -12.96519,-61.70468 5.23504,-3.14277 24.68042,23.55637 35.29412,42.97719 z M 139.31334,59.961583 c 0,9.6136 8.52816,17.406962 12.72509,17.406962 4.19692,0 15.84633,-6.832978 15.84633,-19.567826 0,-12.254656 -7.32768,-15.246099 -14.88595,-15.246099 -7.55827,0 -13.68547,4.912211 -13.68547,17.406963 z M 48.019208,174.84754 c -10.613705,19.42082 -10.262543,30.01936 -2.881152,34.57383 7.38139,4.55448 17.065678,0.12922 25.210083,-15.84634 12.484995,-24.48979 15.494197,-60.18643 12.965186,-61.70468 -5.235034,-3.14277 -24.680413,23.55637 -35.294117,42.97719 z M 116.68666,59.961583 c 0,9.6136 -8.52816,17.406962 -12.72509,17.406962 -4.196925,0 -15.846334,-6.832978 -15.846334,-19.567826 0,-12.254656 7.32768,-15.246099 14.885954,-15.246099 7.55827,0 13.68547,4.912211 13.68547,17.406963 z M 84.513806,113.14286 c 0,-33.373351 30.521004,-36.734696 43.486194,-36.734696 12.96519,0 43.48619,3.361345 43.48619,36.734696 0,33.37335 -37.96307,83.07323 -43.48619,83.07323 -5.52312,0 -43.486194,-49.69988 -43.486194,-83.07323 z"
	/>
</svg>