<?xml version="1.0" encoding="UTF-8" standalone="no"?>
<!-- Created with Inkscape (http://www.inkscape.org/) by Toomai Glittershine for SmashWiki -->
<svg id="svg2" xmlns:rdf="http://www.w3.org/1999/02/22-rdf-syntax-ns#" xmlns="http://www.w3.org/2000/svg" version="1.1" xmlns:cc="http://creativecommons.org/ns#" xmlns:dc="http://purl.org/dc/elements/1.1/"
		height="256" width="256"
		viewBox="0 0 256 256">
	<metadata id="metadata7">
		<rdf:RDF>
			<cc:Work rdf:about="">
				<dc:format>image/svg+xml</dc:format>
				<dc:type rdf:resource="http://purl.org/dc/dcmitype/StillImage"/>
				<dc:title/>
			</cc:Work>
		</rdf:RDF>
	</metadata>
	<path id="mainsymbolpath" style="opacity:0.5;fill:#000000;fill-opacity:1;stroke:none"
		d="m 134.98187,39.349447 c 4.46527,0 8.07916,2.58361 8.07916,5.261798 l 0,164.715125 c 0,2.67818 -2.85462,6.9322 -7.31988,6.9322 l 0,3.44116 38.98472,0 0,-3.44116 c -4.46527,0 -7.31989,-4.25402 -7.31989,-6.9322 l -3.2e-4,-81.95072 c 9.68349,0 12.87736,21.1972 12.87736,32.97512 l 4.13915,0 0,-78.655017 -4.13915,0 c 0,10.348828 -3.19387,28.974057 -12.87736,28.974057 l 0,-63.696935 c 20.29446,0 26.67453,44.107995 26.67453,53.808965 l 5.28892,0 0,-64.8467 -64.38724,-0.02685 z m -78.64387,0 c 4.465268,0 8.079164,2.58361 8.079164,5.261798 l 0,164.715125 c 0,2.67818 -2.854618,6.9322 -7.319886,6.9322 l 0,3.44116 38.984721,0 0,-3.44116 c -4.465268,0 -7.319886,-4.25402 -7.319886,-6.9322 l -3.21e-4,-81.95072 c 9.683491,0 12.877358,21.1972 12.877358,32.97512 l 4.13915,0 0,-78.655017 -4.13915,0 c 0,10.348828 -3.193867,28.974057 -12.877358,28.974057 l 0,-63.696935 c 20.294458,0 26.674528,44.107995 26.674528,53.808965 l 5.28892,0 0,-64.8467 L 56.338,35.90829 Z"
	/>
</svg>