<?xml version="1.0" encoding="UTF-8" standalone="no"?>
<!-- Created with Inkscape (http://www.inkscape.org/) by Toomai Glittershine for SmashWiki -->
<svg id="svg2" xmlns:rdf="http://www.w3.org/1999/02/22-rdf-syntax-ns#" xmlns="http://www.w3.org/2000/svg" version="1.1" xmlns:cc="http://creativecommons.org/ns#" xmlns:dc="http://purl.org/dc/elements/1.1/"
		height="256" width="256"
		viewBox="0 0 256 256">
	<metadata id="metadata7">
		<rdf:RDF>
			<cc:Work rdf:about="">
				<dc:format>image/svg+xml</dc:format>
				<dc:type rdf:resource="http://purl.org/dc/dcmitype/StillImage"/>
				<dc:title/>
			</cc:Work>
		</rdf:RDF>
	</metadata>
	<path id="mainsymbolpath" style="opacity:0.5;fill:#000000;fill-opacity:1;stroke:none"
		d="m 164.3125,71.4375 c -5.34731,0 -10.02839,1.339453 -14.0625,3.40625 0.88894,4.467935 2.93823,17.692197 1.5625,40.4375 -1.27381,21.06035 -4.44007,38.89784 -6,46.8125 l 32.96875,0 c 2.83736,-12.95063 24.5,-28.31352 24.5,-47.96875 0,-22.844517 -16.02666,-42.6875 -38.96875,-42.6875 z m -99.5625,130.875 0,-39.84375 C 63.56599,159.03286 53.617571,145.8747 46.6875,133 43.461152,132.97169 36.951781,131.8326 35.59375,123.4375 34.384389,115.96145 37.65894,113.01378 40,111.875 c 0.262045,-5.81544 1.764737,-13.088448 4.84375,-20.21875 -1.565863,-1.962143 -4.930704,-7.417547 0.375,-13.1875 4.85053,-5.274952 9.501912,-4.769174 11.65625,-4.125 6.980659,-6.408087 16.390533,-10.8125 28.8125,-10.8125 9.61365,0 17.09307,2.127983 22.90625,5.25 -0.5366,-3.856102 -0.99902,-11.074757 2.625,-13.375 5.54711,-3.520864 9.12205,-3.625 16.78125,-3.625 7.6592,0 11.23414,0.104136 16.78125,3.625 3.62402,2.300243 3.1616,9.518898 2.625,13.375 5.81318,-3.122017 13.2926,-5.25 22.90625,-5.25 12.42197,0 21.83184,4.404413 28.8125,10.8125 2.15434,-0.644174 6.80572,-1.149952 11.65625,4.125 5.3057,5.769953 1.94086,11.225357 0.375,13.1875 3.07901,7.130302 4.5817,14.40331 4.84375,20.21875 2.34106,1.13878 5.61561,4.08645 4.40625,11.5625 -1.35803,8.3951 -7.8674,9.53419 -11.09375,9.5625 -6.93007,12.8747 -16.87849,26.03286 -18.0625,29.46875 l 0,39.84375 c 0,0 -42.16667,0 -63.25,0 -21.08333,0 -63.25,0 -63.25,0 z m 63.25,-6.125 c 7.73066,0 14,-6.26934 14,-14 0,-7.73066 -6.26934,-14 -14,-14 -7.73066,0 -14,6.26934 -14,14 0,7.73066 6.26934,14 14,14 z M 52.71875,114.125 c 0,19.65523 21.662635,35.01812 24.5,47.96875 l 32.96875,0 c -1.55993,-7.91466 -4.72619,-25.75215 -6,-46.8125 -1.37573,-22.745303 0.67356,-35.969565 1.5625,-40.4375 -4.03411,-2.066797 -8.715194,-3.40625 -14.0625,-3.40625 -22.94209,0 -38.96875,19.842983 -38.96875,42.6875 z"
	/>
</svg>