<?xml version="1.0" encoding="UTF-8" standalone="no"?>
<!-- Created with Inkscape (http://www.inkscape.org/) by Toomai Glittershine for SmashWiki -->
<svg id="svg2" xmlns:rdf="http://www.w3.org/1999/02/22-rdf-syntax-ns#" xmlns="http://www.w3.org/2000/svg" version="1.1" xmlns:cc="http://creativecommons.org/ns#" xmlns:dc="http://purl.org/dc/elements/1.1/"
		height="256" width="256"
		viewBox="0 0 256 256">
	<metadata id="metadata7">
		<rdf:RDF>
			<cc:Work rdf:about="">
				<dc:format>image/svg+xml</dc:format>
				<dc:type rdf:resource="http://purl.org/dc/dcmitype/StillImage"/>
				<dc:title/>
			</cc:Work>
		</rdf:RDF>
	</metadata>
	<path id="mainsymbolpath" style="opacity:0.5;fill:#000000;fill-opacity:1;stroke:none"
		d="M 38.160228,39.830302 C 48.203771,52.498569 57.727699,65.44659 61.578367,81.582871 l 1.660926,0.04588 c 0.608459,-4.493133 2.380948,-7.731924 4.487253,-10.727196 L 93.429614,96.604617 82.252769,107.78146 68.974535,94.503227 c -1.151044,-0.40287 -3.152676,6.614723 2.844685,13.544343 -3.486931,3.31819 -19.187921,19.4364 -17.793019,39.39424 2.043879,29.24317 16.989484,52.19378 19.426416,56.51737 2.436931,4.32359 3.164215,6.04957 3.303496,7.56134 0.03417,0.37085 -0.02566,0.80249 -0.394581,0.85341 -0.633702,0.0875 -0.203132,-1.10117 -1.578341,-1.10117 -0.966344,0 -1.988287,1.24098 -1.890333,2.20234 0.23855,2.34124 3.267831,4.71349 5.58842,4.32208 4.780204,-0.8063 8.449026,-5.47437 7.928396,-12.18625 -0.959104,-12.36462 -9.027398,-30.89056 -2.81715,-47.63463 4.36751,-11.77568 10.70164,-19.833 14.08576,-23.5925 1.05499,0.0478 2.714396,-0.12666 3.991716,-1.40398 1.76906,-1.76905 1.16627,-4.61485 0,-5.78112 l -2.927256,-2.92727 11.176836,-11.17684 37.70577,37.70578 1.43152,12.31471 33.04417,33.04417 c 0,0 0.62996,-0.79826 0.0183,-2.34915 -0.41269,-1.04651 -9.69026,-21.38099 -9.69026,-21.38099 0,0 20.33448,9.27757 21.38099,9.69026 1.55089,0.61161 2.34915,-0.0183 2.34915,-0.0183 l -33.04417,-33.04417 -12.31471,-1.43152 -37.70578,-37.70577 11.17684,-11.176843 2.92727,2.927263 c 1.16627,1.16627 4.01207,1.76906 5.78112,0 1.27732,-1.27732 1.45178,-2.936733 1.40398,-3.991723 3.7595,-3.38412 11.81682,-9.71825 23.5925,-14.08576 16.74408,-6.21025 35.27001,1.858043 47.63463,2.81716 6.71188,0.52062 11.37995,-3.148199 12.18624,-7.928404 0.39142,-2.32059 -1.98083,-5.349871 -4.32207,-5.58842 -0.96136,-0.09796 -2.20234,0.923983 -2.20234,1.890329 0,1.37521 1.18865,0.944639 1.10117,1.578341 -0.0509,0.368925 -0.48252,0.428782 -0.8534,0.394579 -1.51178,-0.139279 -3.23776,-0.866559 -7.56134,-3.303496 C 199.63562,71.015655 176.685,56.070055 147.44183,54.02617 127.48399,52.631268 111.36579,68.332261 108.04759,71.819193 101.11797,65.821831 94.100384,67.823464 94.503254,68.974507 L 107.78148,82.252742 96.604644,93.429587 70.901583,67.726519 c 2.995273,-2.106305 6.234064,-3.878794 10.727196,-4.487253 l -0.04588,-1.660927 C 65.446618,57.727671 52.498596,48.203743 39.830329,38.1602 l -1.358105,0.311997 z"
	/>
</svg>