<?xml version="1.0" encoding="UTF-8" standalone="no"?>
<!-- Created with Inkscape (http://www.inkscape.org/) by Toomai Glittershine for SmashWiki -->
<svg id="svg2" xmlns:rdf="http://www.w3.org/1999/02/22-rdf-syntax-ns#" xmlns="http://www.w3.org/2000/svg" version="1.1" xmlns:cc="http://creativecommons.org/ns#" xmlns:dc="http://purl.org/dc/elements/1.1/"
		height="256" width="256"
		viewBox="0 0 256 256">
	<metadata id="metadata7">
		<rdf:RDF>
			<cc:Work rdf:about="">
				<dc:format>image/svg+xml</dc:format>
				<dc:type rdf:resource="http://purl.org/dc/dcmitype/StillImage"/>
				<dc:title/>
			</cc:Work>
		</rdf:RDF>
	</metadata>
	<path id="mainsymbolpath" style="opacity:0.5;fill:#000000;fill-opacity:1;stroke:none"
		d="m 121.21875,37.84375 -3.4375,9.5 -1.75,9.59375 c -4.56422,0.763494 -8.98805,1.921834 -13.21875,3.5 l -6.28125,-7.375 -7.75,-6.53125 -11.71875,6.78125 1.78125,9.9375 3.21875,9.15625 c -3.522603,2.912618 -6.743632,6.133647 -9.65625,9.65625 L 63.25,78.84375 53.3125,77.0625 l -6.78125,11.71875 6.53125,7.75 7.375,6.28125 c -1.578166,4.2307 -2.736506,8.65453 -3.5,13.21875 l -9.59375,1.75 -9.5,3.4375 0,13.5625 9.5,3.4375 9.59375,1.75 c 0.763494,4.56422 1.921834,8.98805 3.5,13.21875 l -7.375,6.28125 -6.53125,7.75 6.78125,11.71875 9.9375,-1.78125 9.15625,-3.21875 c 2.912618,3.5226 6.133647,6.74363 9.65625,9.65625 l -3.21875,9.15625 -1.78125,9.9375 11.71875,6.78125 7.75,-6.53125 6.28125,-7.375 c 4.2307,1.57817 8.65453,2.73651 13.21875,3.5 l 1.75,9.59375 3.4375,9.5 13.5625,0 3.4375,-9.5 1.75,-9.59375 c 4.56422,-0.76349 8.98805,-1.92183 13.21875,-3.5 l 6.28125,7.375 7.75,6.53125 11.71875,-6.78125 -1.78125,-9.9375 -3.21875,-9.15625 c 3.5226,-2.91262 6.74363,-6.13365 9.65625,-9.65625 l 9.15625,3.21875 9.9375,1.78125 6.78125,-11.71875 -6.53125,-7.75 -7.375,-6.28125 c 1.57817,-4.2307 2.73651,-8.65453 3.5,-13.21875 l 9.59375,-1.75 9.5,-3.4375 0,-13.5625 -9.5,-3.4375 -9.59375,-1.75 c -0.76349,-4.56422 -1.92183,-8.98805 -3.5,-13.21875 l 7.375,-6.28125 6.53125,-7.75 -6.78125,-11.71875 -9.9375,1.78125 -9.15625,3.21875 c -2.91262,-3.522603 -6.13365,-6.743632 -9.65625,-9.65625 l 3.21875,-9.15625 1.78125,-9.9375 -11.71875,-6.78125 -7.75,6.53125 -6.28125,7.375 c -4.2307,-1.578166 -8.65453,-2.736506 -13.21875,-3.5 l -1.75,-9.59375 -3.4375,-9.5 -13.5625,0 z M 128,107.125 c 11.52306,0 20.875,9.35194 20.875,20.875 0,11.52306 -9.35194,20.875 -20.875,20.875 -11.52306,0 -20.875,-9.35194 -20.875,-20.875 0,-11.52306 9.35194,-20.875 20.875,-20.875 z"
	/>
</svg>