<?xml version="1.0" encoding="UTF-8" standalone="no"?>
<!-- Created with Inkscape (http://www.inkscape.org/) by Toomai Glittershine for SmashWiki -->
<svg id="svg2" xmlns:rdf="http://www.w3.org/1999/02/22-rdf-syntax-ns#" xmlns="http://www.w3.org/2000/svg" version="1.1" xmlns:cc="http://creativecommons.org/ns#" xmlns:dc="http://purl.org/dc/elements/1.1/"
		height="256" width="256"
		viewBox="0 0 256 256">
	<metadata id="metadata7">
		<rdf:RDF>
			<cc:Work rdf:about="">
				<dc:format>image/svg+xml</dc:format>
				<dc:type rdf:resource="http://purl.org/dc/dcmitype/StillImage"/>
				<dc:title/>
			</cc:Work>
		</rdf:RDF>
	</metadata>
	<path id="mainsymbolpath" style="opacity:0.5;fill:#000000;fill-opacity:1;stroke:none"
		d="m 217.59375,28.96875 -130.625,71.46875 0,48.09375 22.59375,6.6875 -71.15625,71.8125 130.625,-71.46875 0,-48.09375 -22.59375,-6.6875 z m -27.65625,20.84375 -70.25,70.875 3.5625,3.53125 19.21875,-19.40625 21.5625,6.40625 0,41.375 -97.96875,53.59375 70.25,-70.875 -3.5625,-3.53125 -19.21875,19.40625 -21.5625,-6.40625 0,-41.375 z M 128,56.4375 c -39.525818,0 -71.5625,32.036682 -71.5625,71.5625 0,20.26492 8.433191,38.5417 21.96875,51.5625 L 100.125,157.625 81.96875,152.25 l 0,-54.75 68.46875,-37.46875 C 143.37784,57.701491 135.84023,56.4375 128,56.4375 z m 49.59375,20 -21.71875,21.9375 18.15625,5.375 0,54.75 -68.46875,37.46875 c 7.05966,2.32976 14.59727,3.59375 22.4375,3.59375 39.52582,0 71.5625,-32.03668 71.5625,-71.5625 0,-20.26492 -8.43319,-38.541701 -21.96875,-51.5625 z"
	/>
</svg>