<?xml version="1.0" encoding="UTF-8" standalone="no"?>
<!-- Created with Inkscape (http://www.inkscape.org/) by Toomai Glittershine for SmashWiki -->
<svg id="svg2" xmlns:rdf="http://www.w3.org/1999/02/22-rdf-syntax-ns#" xmlns="http://www.w3.org/2000/svg" version="1.1" xmlns:cc="http://creativecommons.org/ns#" xmlns:dc="http://purl.org/dc/elements/1.1/"
		height="256" width="256"
		viewBox="0 0 256 256">
	<metadata id="metadata7">
		<rdf:RDF>
			<cc:Work rdf:about="">
				<dc:format>image/svg+xml</dc:format>
				<dc:type rdf:resource="http://purl.org/dc/dcmitype/StillImage"/>
				<dc:title/>
			</cc:Work>
		</rdf:RDF>
	</metadata>
	<path id="mainsymbolpath" style="opacity:0.5;fill:#000000;fill-opacity:1;stroke:none"
		d="m 111.53959,169.27012 14.83155,-35.57927 0,50.09199 25.70428,0 0,-91.085493 c 0,-9.727649 -7.88501,-17.61267 -17.61267,-17.61267 -7.7073,0 -14.25977,4.94992 -16.64851,11.844501 L 92.061148,151.929 66.308056,86.929178 C 63.919318,80.034597 57.366846,75.084677 49.65954,75.084677 c -9.72765,0 -17.612662,7.885021 -17.612662,17.61267 l 0,91.085493 25.704273,0 0,-50.09199 14.831559,35.57927 c 2.975321,7.86197 10.574204,13.45245 19.478438,13.45245 8.904232,0 16.503112,-5.59048 19.478442,-13.45245 z M 224.72382,85.045276 A 12.852066,12.852066 0 0 1 211.87175,97.897342 12.852066,12.852066 0 0 1 199.01969,85.045276 12.852066,12.852066 0 0 1 211.87175,72.19321 12.852066,12.852066 0 0 1 224.72382,85.045276 Z m -25.70413,22.882234 25.70413,0 0,75.85587 -25.70413,0 z m -35.93015,0 25.70413,0 0,75.85587 -25.70413,0 z M 188.79367,85.045276 A 12.852066,12.852066 0 0 1 175.9416,97.897342 12.852066,12.852066 0 0 1 163.08954,85.045276 12.852066,12.852066 0 0 1 175.9416,72.19321 12.852066,12.852066 0 0 1 188.79367,85.045276 Z"
	/>
</svg>