<?xml version="1.0" encoding="UTF-8" standalone="no"?>
<!-- Created with Inkscape (http://www.inkscape.org/) by Toomai Glittershine for SmashWiki -->
<svg id="svg2" xmlns:rdf="http://www.w3.org/1999/02/22-rdf-syntax-ns#" xmlns="http://www.w3.org/2000/svg" version="1.1" xmlns:cc="http://creativecommons.org/ns#" xmlns:dc="http://purl.org/dc/elements/1.1/"
		height="256" width="256"
		viewBox="0 0 256 256">
	<metadata id="metadata7">
		<rdf:RDF>
			<cc:Work rdf:about="">
				<dc:format>image/svg+xml</dc:format>
				<dc:type rdf:resource="http://purl.org/dc/dcmitype/StillImage"/>
				<dc:title/>
			</cc:Work>
		</rdf:RDF>
	</metadata>
	<path id="mainsymbolpath" style="opacity:0.5;fill:#000000;fill-opacity:1;stroke:none"
		d="M 86.080548,71.64663 C 81.09856,69.019407 75.457355,67.374583 69.437369,67.374583 c -10.578846,0 -20.282642,4.627794 -26.551953,11.896462 -6.269312,7.268668 -9.315434,16.751139 -9.315434,26.581625 0,9.90509 2.878285,18.8129 8.306756,25.63228 -3.522975,5.94065 -6.902612,12.0069 -9.997774,18.06719 -4.919822,3.41562 -8.128755,9.09817 -8.128755,15.48617 0,10.30257 8.626462,18.83853 18.868204,18.83853 -1.096394,2.34478 -2.966699,6.94546 -2.966699,11.12512 0,4.00574 1.970252,10.7168 8.66276,14.62583 0.02894,0.0191 0.06009,0.0405 0.089,0.0593 0.05795,0.0334 0.119352,0.056 0.178002,0.089 0.974485,0.61474 1.925329,1.05862 2.788697,1.39434 2.740043,1.06547 4.94527,1.34813 7.060743,1.42402 0.116578,0.009 0.238064,-0.009 0.356003,0 0.808804,0.0574 1.647654,0.11867 2.521694,0.11867 l 32.960022,0 c 0,10.30732 22.093765,8.92976 33.731365,8.92976 11.6376,0 33.73136,1.37756 33.73136,-8.92976 l 32.96003,0 c 0.87404,0 1.71289,-0.0612 2.52169,-0.11867 0.11794,-0.009 0.23942,0.009 0.356,0 2.11547,-0.0759 4.3207,-0.35853 7.06075,-1.42402 0.86337,-0.33572 1.81421,-0.7796 2.78869,-1.39434 0.0902,-0.0507 0.1785,-0.0966 0.26701,-0.14834 6.69251,-3.90903 8.66276,-10.62009 8.66276,-14.62582 0,-4.17967 -1.87031,-8.78035 -2.9667,-11.12512 10.24174,0 18.8682,-8.53597 18.8682,-18.83854 0,-6.24493 -3.12723,-11.78128 -7.86175,-15.21916 -3.04723,-6.23675 -6.54516,-13.3797 -10.32411,-20.26256 5.01164,-6.10394 8.36609,-14.22203 8.36609,-23.70392 0,-9.830484 -3.17233,-19.268126 -9.64177,-26.195952 -6.46945,-6.927825 -16.03793,-10.798783 -26.22562,-10.798783 -5.92552,0 -11.56106,1.42713 -16.58384,3.886376 C 166.69286,50.83381 148.98752,34.295846 128,34.29587 107.01247,34.295893 89.773844,50.272169 86.080548,71.64663 z M 128,46.162688 c 17.02467,0 30.824,13.883485 30.824,33.909366 0,13.943787 -7.29339,24.563266 -15.57517,29.399986 10.46988,12.78881 17.49035,28.81026 23.82259,41.65245 3.93641,1.15445 6.82341,4.79793 6.82341,9.10777 0,5.23835 -4.25508,9.46376 -9.49344,9.46376 -5.23835,0 -9.46377,-4.22541 -9.46377,-9.46376 0,-1.94964 0.56368,-3.77368 1.57235,-5.28073 l -11.92612,-21.24156 c 4.33607,17.601 0.65176,40.65045 -3.53038,64.05102 4.03245,0.85563 6.55641,4.98392 6.55641,7.47608 0,2.79082 -3.61268,3.85671 -9.10777,3.85671 -5.49508,0 -8.36609,-0.38098 -8.36609,-4.12371 0,-3.25543 1.79425,-4.96081 2.28436,-5.36972 l 0.0593,-26.16629 c 0,0 -1.60737,0.86035 -4.47971,0.86035 -2.87234,0 -4.47971,-0.86035 -4.47971,-0.86035 l 0.0593,26.16629 c 0.49011,0.40891 2.28436,2.11429 2.28436,5.36972 0,3.74273 -2.87101,4.12371 -8.36609,4.12371 -5.49509,0 -9.10777,-1.06589 -9.10777,-3.85671 0,-2.49216 2.52396,-6.62045 6.55641,-7.47608 -4.18214,-23.40057 -7.86645,-46.45002 -3.53038,-64.05102 l -11.926124,21.24156 c 1.008674,1.50705 1.572354,3.33109 1.572354,5.28073 0,5.23835 -4.225419,9.46376 -9.463773,9.46376 -5.238352,0 -9.493435,-4.22541 -9.493435,-9.46376 0,-4.30984 2.887002,-7.95332 6.823407,-9.10777 C 95.260825,138.2823 102.28129,122.26085 112.75117,109.47204 104.46939,104.63532 97.176001,94.015841 97.176001,80.072054 97.176001,60.046173 110.97533,46.162688 128,46.162688 z m -12.2228,20.588889 c -3.12919,0 -5.66639,2.537206 -5.66639,5.666394 0,3.129179 2.5372,5.666395 5.66639,5.666395 3.12917,0 5.6664,-2.537216 5.6664,-5.666395 0,-3.129188 -2.53723,-5.666394 -5.6664,-5.666394 z m 24.4456,0 c -3.12917,0 -5.6664,2.537206 -5.6664,5.666394 0,3.129179 2.53723,5.666395 5.6664,5.666395 3.12919,0 5.66639,-2.537216 5.66639,-5.666395 0,-3.129188 -2.5372,-5.666394 -5.66639,-5.666394 z M 69.437369,79.271045 c 14.845208,0 24.000592,11.830938 24.000592,26.581625 0,10.27073 -5.529262,19.87428 -11.629459,23.43692 2.867986,4.46182 5.991117,8.19701 8.989097,14.09182 -8.995277,0.0478 -16.287176,7.36965 -16.287176,16.37617 0,6.30726 3.582548,11.77631 8.811095,14.50716 -0.832925,5.73516 -1.97715,11.75965 -3.115033,18.12653 2.97022,0.63023 4.835718,3.68239 4.835718,5.51806 0,2.05566 -2.686832,2.84803 -6.734405,2.84803 -4.047574,0 -6.141067,-0.29888 -6.141067,-3.0557 0,-2.3979 1.300345,-3.64452 1.661352,-3.94571 l 0.05933,-19.66921 c 0,0 -2.334332,0.623 -4.450048,0.623 -2.115717,0 -4.450048,-0.623 -4.450048,-0.623 l 0.02967,19.66921 c 0.361006,0.30119 1.691018,1.54781 1.691018,3.94571 0,2.75682 -2.12316,3.0557 -6.170733,3.0557 -4.047574,0 -6.704739,-0.79237 -6.704739,-2.84803 0,-1.83567 1.865498,-4.88783 4.835718,-5.51806 -3.080477,-17.23643 -6.219909,-32.04025 -3.026032,-45.00482 l -7.209078,13.76548 c 0.742975,1.11007 1.157013,2.45031 1.157013,3.88638 0,3.85847 -3.113268,6.97174 -6.971742,6.97174 -3.858474,0 -7.001409,-3.11327 -7.001409,-6.97174 0,-3.17455 2.143912,-5.85439 5.043388,-6.70474 4.66421,-9.45931 10.969408,-20.63249 16.376176,-29.04398 -6.100197,-3.56264 -11.599792,-13.16619 -11.599792,-23.43692 0,-14.750687 9.155384,-26.581625 24.000594,-26.581625 z M 210.56322,105.85267 c 0,10.27073 -5.49959,17.79759 -11.59979,21.36023 5.40677,8.41149 11.71197,21.66136 16.37618,31.12067 2.89947,0.85035 5.04339,3.53019 5.04339,6.70474 0,3.85847 -3.14294,6.97174 -7.00141,6.97174 -3.85848,0 -6.97174,-3.11327 -6.97174,-6.97174 0,-1.43607 0.41403,-2.77631 1.15701,-3.88638 l -7.20908,-13.76548 c 3.19388,12.96457 0.0545,27.76839 -3.02603,45.00482 2.97022,0.63023 4.83572,3.68239 4.83572,5.51806 0,2.05566 -2.65717,2.84803 -6.70474,2.84803 -4.04758,0 -6.17074,-0.29888 -6.17074,-3.0557 0,-2.3979 1.33002,-3.64452 1.69102,-3.94571 l 0.0296,-17.82986 c 0,0 -2.33433,0.62301 -4.45005,0.62301 -2.11571,0 -4.45004,-0.62301 -4.45004,-0.62301 l 0.0593,17.82986 c 0.36101,0.30119 1.66135,1.54781 1.66135,3.94571 0,2.75682 -2.09349,3.0557 -6.14106,3.0557 -4.04758,0 -6.73441,-0.79237 -6.73441,-2.84803 0,-1.83567 1.8655,-4.88783 4.83572,-5.51806 -1.13789,-6.36688 -2.28211,-12.39137 -3.11504,-18.12653 5.22855,-2.73085 8.8111,-8.1999 8.8111,-14.50716 0,-9.00652 -7.2919,-16.32834 -16.28718,-16.37617 2.99798,-5.89481 6.12111,-11.70669 8.9891,-16.16851 -6.1002,-3.56264 -11.62946,-11.0895 -11.62946,-21.36023 0,-14.750687 9.15539,-25.127943 24.00064,-25.127943 14.84525,0 24.00064,10.377256 24.00064,25.127943 z M 118.71423,91.345509 c -1.21085,0.09261 -2.33757,0.865844 -2.81836,1.987688 -0.54949,1.282117 -0.19167,2.911057 0.86034,3.827041 0,0 4.62439,4.450052 11.24379,4.450052 6.6194,0 11.24379,-4.450052 11.24379,-4.450052 1.05201,-0.915984 1.40983,-2.544924 0.86034,-3.827041 -0.54947,-1.282108 -1.96355,-2.117767 -3.35237,-1.987688 -0.7368,0.06436 -1.44897,0.38324 -1.98769,0.890009 0,0 -3.31446,2.729363 -6.76407,2.729363 -3.44961,0 -6.76407,-2.729363 -6.76407,-2.729363 -0.53872,-0.506769 -1.25089,-0.825644 -1.98769,-0.890009 -0.17361,-0.01626 -0.36103,-0.01323 -0.53401,0 z"
	/>
</svg>