<?xml version="1.0" encoding="UTF-8" standalone="no"?>
<!-- Created with Inkscape (http://www.inkscape.org/) by Toomai Glittershine for SmashWiki -->
<svg id="svg2" xmlns:rdf="http://www.w3.org/1999/02/22-rdf-syntax-ns#" xmlns="http://www.w3.org/2000/svg" version="1.1" xmlns:cc="http://creativecommons.org/ns#" xmlns:dc="http://purl.org/dc/elements/1.1/"
		height="256" width="256"
		viewBox="0 0 256 256">
	<metadata id="metadata7">
		<rdf:RDF>
			<cc:Work rdf:about="">
				<dc:format>image/svg+xml</dc:format>
				<dc:type rdf:resource="http://purl.org/dc/dcmitype/StillImage"/>
				<dc:title/>
			</cc:Work>
		</rdf:RDF>
	</metadata>
	<path id="mainsymbolpath" style="opacity:0.5;fill:#000000;fill-opacity:1;stroke:none"
		d="m 193.53422,102.41777 c 12.14561,-1.74504 19.91327,5.74101 24.29772,18.515 4.47097,13.02606 -1.24452,35.84297 -14.76951,36.71549 -13.41228,0.86525 -28.47687,-9.08901 -29.46099,-22.4886 -0.99269,-13.51631 8.44358,-31.09116 19.93278,-32.74189 z M 152.63866,56.08403 c 12.19272,-1.378024 20.57598,11.35608 23.10924,24.621849 3.5466,18.57228 -1.85287,31.687171 -13.94957,33.277321 -10.71947,1.4091 -27.68428,-7.00375 -28.40337,-20.420177 -1.01779,-18.989362 6.4906,-36.037634 19.2437,-37.478993 z M 97.336134,202.39976 c -10.764699,0 -21.511404,-6.45455 -21.511404,-17.47059 0,-22.35995 7.239692,-25.01522 12.478991,-35.06002 8.025244,-15.38603 24.837009,-30.66267 41.367349,-30.66267 16.53034,0 33.3421,15.27664 41.36735,30.66267 5.2393,10.0448 13.28571,13.50679 13.28571,35.86674 0,11.01604 -10.51622,17.93158 -21.28091,17.93158 -10.46775,0 -19.80148,-8.27971 -33.37215,-8.27971 -13.57067,0 -21.86719,7.012 -32.334936,7.012 z M 64.156064,101.34214 c -12.149888,-1.715106 -19.990103,6.66298 -24.374552,19.43697 -4.47097,13.02606 -2.630764,33.9695 9.621848,36.71549 9.378963,2.10197 26.997321,-3.27029 30.690279,-16.18848 3.725126,-13.03071 -2.066628,-38.00593 -15.937575,-39.96398 z M 107.39496,58.268904 c -12.073548,-2.188785 -20.321436,8.402485 -24.705885,21.17647 -4.47097,13.026062 -4.761296,31.140596 6.722689,36.218496 9.888152,4.37227 26.702876,-1.74164 31.932776,-14.11765 5.96162,-14.107548 -1.32113,-40.987934 -13.94958,-43.277316 z"
	/>
</svg>