<?xml version="1.0" encoding="UTF-8" standalone="no"?>
<!-- Created with Inkscape (http://www.inkscape.org/) by Toomai Glittershine for SmashWiki -->
<svg id="svg2" xmlns:rdf="http://www.w3.org/1999/02/22-rdf-syntax-ns#" xmlns="http://www.w3.org/2000/svg" version="1.1" xmlns:cc="http://creativecommons.org/ns#" xmlns:dc="http://purl.org/dc/elements/1.1/"
		height="256" width="256"
		viewBox="0 0 256 256">
	<metadata id="metadata7">
		<rdf:RDF>
			<cc:Work rdf:about="">
				<dc:format>image/svg+xml</dc:format>
				<dc:type rdf:resource="http://purl.org/dc/dcmitype/StillImage"/>
				<dc:title/>
			</cc:Work>
		</rdf:RDF>
	</metadata>
	<path id="mainsymbolpath" style="opacity:0.5;fill:#000000;fill-opacity:1;stroke:none"
		d="m 128,32.57028 c -22.17124,0 -40.142302,14.618551 -40.142302,34.192433 0,2.401811 0.269809,4.769597 0.78559,7.070299 -2.028422,-1.201223 -4.194009,-2.194221 -6.477888,-2.936298 -18.615868,-6.048663 -38.068941,6.525417 -44.920229,27.611515 -6.851291,21.086091 1.500358,42.696481 20.116226,48.745131 2.281317,0.74125 4.609972,1.22161 6.954393,1.4424 -1.767936,1.55721 -3.380174,3.29999 -4.790804,5.24155 -11.505239,15.8356 -5.547785,38.23741 12.389122,51.26933 17.936907,13.03193 41.064822,11.766 52.570062,-4.0696 1.41281,-1.94457 2.58044,-4.01545 3.51583,-6.18169 0.93539,2.16624 2.10302,4.23712 3.51583,6.18169 11.50524,15.83559 34.63316,17.10153 52.57006,4.0696 17.93691,-13.03192 23.89437,-35.43372 12.38912,-51.26933 -1.41063,-1.94156 -3.02286,-3.68434 -4.7908,-5.24155 2.34442,-0.22079 4.67308,-0.70115 6.9544,-1.4424 18.61586,-6.04865 26.96751,-27.65903 20.11622,-48.745131 -6.85128,-21.086097 -26.30436,-33.660179 -44.92022,-27.611515 -2.28389,0.742077 -4.44948,1.735075 -6.4779,2.936298 0.51579,-2.300702 0.7856,-4.668488 0.7856,-7.070299 C 168.14231,47.188831 150.17124,32.57028 128,32.57028 z m 0,59.98808 c 19.57389,0 35.44165,15.86777 35.44165,35.44164 0,19.57389 -15.86776,35.44165 -35.44165,35.44165 -19.57388,0 -35.441647,-15.86776 -35.441647,-35.44165 0,-19.57388 15.867767,-35.44164 35.441647,-35.44164 z"
	/>
</svg>