<?xml version="1.0" encoding="UTF-8" standalone="no"?>
<!-- Created with Inkscape (http://www.inkscape.org/) by Toomai Glittershine for SmashWiki -->
<svg id="svg2" xmlns:rdf="http://www.w3.org/1999/02/22-rdf-syntax-ns#" xmlns="http://www.w3.org/2000/svg" version="1.1" xmlns:cc="http://creativecommons.org/ns#" xmlns:dc="http://purl.org/dc/elements/1.1/"
		height="256" width="256"
		viewBox="0 0 256 256">
	<metadata id="metadata7">
		<rdf:RDF>
			<cc:Work rdf:about="">
				<dc:format>image/svg+xml</dc:format>
				<dc:type rdf:resource="http://purl.org/dc/dcmitype/StillImage"/>
				<dc:title/>
			</cc:Work>
		</rdf:RDF>
	</metadata>
	<path id="mainsymbolpath" style="opacity:0.5;fill:#000000;fill-opacity:1;stroke:none"
		d="m 111.46875,63.249997 c -5.84903,0.241495 -12.199947,2.38211 -18.15625,7.5 -11.565629,9.937647 -6.116582,20.054644 0.5625,26.71875 l 42,41.906253 -61.5625,28.25 c -4.138938,1.89836 -8.795207,2.7494 -14.75,0.90625 l -12.53125,-3.875 c -1.980222,-0.61293 -7.175795,-2.26895 -9.0625,-0.125 -1.107545,1.25855 0.311274,4.39865 0.96875,5 L 47.125,177 c -1.155078,1.10873 -1.851553,3.64682 -0.8125,4.96875 1.54393,1.96425 5.465114,0.83531 7.46875,0.625 l 52.21875,-5.5 c 7.3317,-0.76955 14.94248,-2.04836 20.71875,-3.78125 L 183.5,156.28125 c 4.72043,-1.41613 10.23482,-6.99379 14.40625,-13.0625 -1.95392,-4.16774 -3.84744,-8.7757 -5.625,-13.6875 -1.16369,-3.21555 -2.19098,-6.36064 -3.09375,-9.40625 l -9.96875,0 -7.6875,2.09375 -40.6875,-51.375003 c -3.37615,-4.260204 -10.82641,-7.946704 -19.375,-7.59375 z m 79.0625,25.71875 c -0.15033,0.01875 -0.29681,0.07408 -0.4375,0.125 -4.50223,1.629338 -2.25407,19.275273 5.03125,39.406253 7.28531,20.13099 16.84151,35.12934 21.34375,33.5 4.31206,-1.56052 2.41206,-17.82032 -4.15625,-36.875 l 1.28125,-1.3125 c 2.81842,-2.86921 2.18493,-5.45172 -2.90625,-5.1875 -0.22306,0.0116 -0.47381,0.0391 -0.71875,0.0625 -6.81911,-17.52749 -15.0934,-30.260632 -19.4375,-29.718753 z m 1.09375,3.375 c 3.28296,-0.268224 10.10134,11.074573 16.15625,26.593753 l -10.34375,1.1875 -2.9375,0 c -4.64846,-14.86379 -6.14259,-26.660625 -3.21875,-27.718753 0.10664,-0.03859 0.22808,-0.05305 0.34375,-0.0625 z m 19.0625,34.437503 c 5.7122,16.78792 7.78876,30.71874 4.59375,31.875 -2.74327,0.99277 -8.54494,-7.75137 -14.15625,-20.71875 0.52445,-0.97395 0.99787,-1.94388 1.40625,-2.875 l 8.15625,-8.28125 z m -95.03125,5.4375 c -5.15296,0 -9.34375,4.19079 -9.34375,9.34375 0,1.54982 0.39386,2.99505 1.0625,4.28125 L 69.125,165.1875 55.9375,152.375 c -1.170054,-1.13429 -2.202672,-2.51354 -3.9375,-2.34375 -1.949386,0.1908 -1.783026,2.71306 -2.0625,4.5 l -1.34375,8.53125 11.5625,3.5625 c 5.50964,1.70536 9.485947,0.94258 13.3125,-0.8125 l 58,-26.5625 -3.71875,-3.71875 -3.75,1.90625 c -1.52523,-3.07646 -4.67722,-5.21875 -8.34375,-5.21875 z m 70.0625,25.34375 c -0.55137,0.24456 -1.09789,0.45749 -1.65625,0.625 l -31.5625,9.46875 4.28125,8.4375 c 3.2308,6.3297 10.78497,13.03872 25.34375,6.78125 13.59052,-5.84131 10.57892,-11.70705 8.28125,-16.1875 l -4.6875,-9.125 z m -112.3125,24.96875 -16.09375,1.6875 c 3.510432,2.07894 8.231368,4.59865 10.90625,4.625 2.422043,0.0239 4.108675,-3.23787 5.1875,-6.3125 z"
	/>
</svg>