<?xml version="1.0" encoding="UTF-8" standalone="no"?>
<!-- Created with Inkscape (http://www.inkscape.org/) by Toomai Glittershine for SmashWiki -->
<svg id="svg2" xmlns:rdf="http://www.w3.org/1999/02/22-rdf-syntax-ns#" xmlns="http://www.w3.org/2000/svg" version="1.1" xmlns:cc="http://creativecommons.org/ns#" xmlns:dc="http://purl.org/dc/elements/1.1/"
		height="256" width="256"
		viewBox="0 0 256 256">
	<metadata id="metadata7">
		<rdf:RDF>
			<cc:Work rdf:about="">
				<dc:format>image/svg+xml</dc:format>
				<dc:type rdf:resource="http://purl.org/dc/dcmitype/StillImage"/>
				<dc:title/>
			</cc:Work>
		</rdf:RDF>
	</metadata>
	<path id="mainsymbolpath" style="opacity:0.5;fill:#000000;fill-opacity:1;stroke:none"
		d="m 129.5,50.124998 c -36.523263,0.423875 -49.969021,9.007885 -64.75,21 -22.141657,17.963985 -29.445753,54.935742 -26.3125,67.468752 3.133253,12.53302 13.899979,21.4896 17.34375,23.40625 2.653799,1.47698 9.535309,1.68505 11.676804,0.15541 0,0 7.858321,23.35816 25.854285,32.93721 12.872931,6.85212 28.884841,13.24806 48.937661,13.24807 29.6644,1e-5 48.04596,-9.58074 58.28125,-17.30944 10.2353,-7.72869 15.86018,-28.40595 17.53125,-60.15625 C 219.73357,99.124699 204.53215,53.135331 146.625,50.468748 140.39405,50.181817 134.71761,50.064444 129.5,50.124998 z M 82,71.687498 C 75.160397,81.975341 69.193343,93.412371 69.21875,112.4375 c 1.235515,0.48987 2.407622,1.085 3.5,1.8125 6.438541,-9.28444 12.7307,-16.047923 20.8125,-18.843752 -6.220637,6.226792 -10.811789,14.348142 -14.71875,25.375002 2.866011,4.84138 4.355796,11.35915 4.1875,19.1875 4.926171,3.07923 9.078806,6.55125 12.71875,10.3125 -4.013488,-1.77271 -7.569276,-3.61616 -13.0625,-5.09375 -0.213413,1.9822 -0.527891,4.03746 -0.9375,6.15625 3.561749,4.42615 5.550907,9.68386 5.3125,16.15625 C 84.075835,163.46897 81.768979,159.23943 75.125,156.4375 80.291591,132.9666 71.563716,123.11867 60.5625,115.5 62.05698,87.296746 70.706549,81.023789 82,71.687498 z M 196.8125,178.21875 c -10.76272,24.61117 -87.86251,24.87572 -104.1875,3.75 46.06798,9.88963 63.98978,8.94767 104.1875,-3.75 z"
	/>
</svg>