<?xml version="1.0" encoding="UTF-8" standalone="no"?>
<!-- Created with Inkscape (http://www.inkscape.org/) by Toomai Glittershine for SmashWiki -->
<svg id="svg2" xmlns:rdf="http://www.w3.org/1999/02/22-rdf-syntax-ns#" xmlns="http://www.w3.org/2000/svg" version="1.1" xmlns:cc="http://creativecommons.org/ns#" xmlns:dc="http://purl.org/dc/elements/1.1/"
		height="256" width="256"
		viewBox="0 0 256 256">
	<metadata id="metadata7">
		<rdf:RDF>
			<cc:Work rdf:about="">
				<dc:format>image/svg+xml</dc:format>
				<dc:type rdf:resource="http://purl.org/dc/dcmitype/StillImage"/>
				<dc:title/>
			</cc:Work>
		</rdf:RDF>
	</metadata>
	<path id="mainsymbolpath" style="opacity:0.5;fill:#000000;fill-opacity:1;stroke:none"
		d="M 58.199525,58.19951 C 50.593814,65.80522 46.427406,73.885247 48.855736,76.313577 L 72.63431,100.09216 C 43.445945,135.62745 33.204979,174.2 50.205689,191.20071 l 7.790902,7.7909 c 16.991551,16.99155 55.536209,6.77653 91.055619,-22.37568 l 13.10248,13.10248 35.22229,7.65855 -7.65856,-35.22228 -13.10248,-13.10248 c 29.15221,-35.51941 39.36724,-74.064073 22.37568,-91.055624 l -7.7909,-7.790902 C 174.20001,33.204962 135.62746,43.445931 100.09217,72.634295 L 76.313592,48.855721 c -2.42833,-2.42833 -10.508357,1.738078 -18.114067,9.343789 z m 30.528336,57.9862 16.525889,16.52588 c 2.42833,2.42833 10.50836,-1.73807 18.11407,-9.34378 7.60571,-7.60571 11.77212,-15.68574 9.34379,-18.11407 L 116.18572,88.727846 c 22.37143,-17.714142 44.28968,-25.060814 52.92166,-16.428833 10.50746,10.507462 -2.64663,40.692357 -29.38132,67.427047 -26.73468,26.73467 -56.91957,39.88877 -67.427032,29.38131 -8.631981,-8.63198 -1.28531,-30.55023 16.428833,-52.92166 z"
	/>
</svg>