<?xml version="1.0" encoding="UTF-8" standalone="no"?>
<!-- Created with Inkscape (http://www.inkscape.org/) by Toomai Glittershine for SmashWiki -->
<svg id="svg2" xmlns:rdf="http://www.w3.org/1999/02/22-rdf-syntax-ns#" xmlns="http://www.w3.org/2000/svg" version="1.1" xmlns:cc="http://creativecommons.org/ns#" xmlns:dc="http://purl.org/dc/elements/1.1/"
		height="256" width="256"
		viewBox="0 0 256 256">
	<metadata id="metadata7">
		<rdf:RDF>
			<cc:Work rdf:about="">
				<dc:format>image/svg+xml</dc:format>
				<dc:type rdf:resource="http://purl.org/dc/dcmitype/StillImage"/>
				<dc:title/>
			</cc:Work>
		</rdf:RDF>
	</metadata>
	<path id="mainsymbolpath" style="opacity:0.5;fill:#000000;fill-opacity:1;stroke:none"
		d="m 150.21875,50.906246 c -33.42571,0.53378 -66.584261,16.442039 -82.53125,37.0625 -24.219606,-7.101591 -31.337478,-3.083488 -31.65625,-2.5 l -2.1875,4 c -0.447886,0.819822 -1.774918,7.145302 9.4375,30.281254 -1.504103,5.5012 -2.4375,11.86487 -2.4375,19.1875 0,10.12325 3.624353,21.57617 9.8125,32.0625 -4.066968,0.76403 -7.59375,2.35896 -7.59375,6.3125 0,4.88987 6.975565,7.76566 17.96875,7.59375 10.661561,11.54589 24.636563,19.75 39.71875,19.75 25.08764,0 44.52705,-12.84375 69.03125,-12.84375 24.5042,0 46.6875,10.5 46.6875,10.5 -0.41525,-18.07989 -4.23581,-35.57042 -37.34375,-48.03125 16.47071,-12.57469 32.44455,-12.72212 48.40625,-12.0625 -8.72904,-20.3192 -20.33625,-38.60385 -54.625,-41.03125 6.98285,-10.892654 20.24292,-19.10627 44.3125,-22.750004 -18.09835,-20.12451 -42.60827,-27.920765 -67,-27.53125 z"
	/>
</svg>