<?xml version="1.0" encoding="UTF-8" standalone="no"?>
<!-- Created with Inkscape (http://www.inkscape.org/) by Toomai Glittershine for SmashWiki -->
<svg id="svg2" xmlns:rdf="http://www.w3.org/1999/02/22-rdf-syntax-ns#" xmlns="http://www.w3.org/2000/svg" version="1.1" xmlns:cc="http://creativecommons.org/ns#" xmlns:dc="http://purl.org/dc/elements/1.1/"
		height="256" width="256"
		viewBox="0 0 256 256">
	<metadata id="metadata7">
		<rdf:RDF>
			<cc:Work rdf:about="">
				<dc:format>image/svg+xml</dc:format>
				<dc:type rdf:resource="http://purl.org/dc/dcmitype/StillImage"/>
				<dc:title/>
			</cc:Work>
		</rdf:RDF>
	</metadata>
	<path id="mainsymbolpath" style="opacity:0.5;fill:#000000;fill-opacity:1;stroke:none"
		d="m 139.37695,213.88867 c 4.8635,-0.64705 10.56083,-11.01368 11.37891,-22.46679 0.49085,3.43593 6.95101,17.01063 11.48242,18.12304 3.30625,-0.73627 11.45313,-9.24304 11.45313,-16.45312 0,-7.21009 -4.97692,-13.20705 -5.2793,-16.03125 -0.65446,-6.11264 6.58984,-28.89258 6.58984,-28.89258 0,0 31.32144,-0.76964 32.23438,-14.63672 C 208.75425,110.47472 140.73989,39.25 128,39.25 c -12.73989,0 -80.754251,71.22472 -79.236328,94.28125 0.912937,13.86708 32.234375,14.63672 32.234375,14.63672 0,0 7.244307,22.77994 6.589844,28.89258 -0.302379,2.8242 -5.279297,8.82116 -5.279297,16.03125 0,7.21008 8.14688,15.71685 11.453125,16.45312 4.531409,-1.11241 10.991571,-14.68711 11.482421,-18.12304 0.81808,11.45311 6.51541,21.81974 11.37891,22.46679 6.41785,-0.48956 10.80429,-12.89325 11.37695,-18.86523 0.57266,5.97198 4.9591,18.37567 11.37695,18.86523 z m -5.10879,-91.67486 c 0,-6.93872 5.62495,-12.56367 12.56367,-12.56367 6.93873,0 12.56368,5.62494 12.56368,12.56367 0,6.93873 -5.62495,12.56368 -12.56368,12.56368 -6.93873,0 -12.56367,-5.62495 -12.56367,-12.56368 z m -12.53632,0 c 0,6.93873 -5.62494,12.56368 -12.56367,12.56368 -6.93873,0 -12.563682,-5.62495 -12.56368,-12.56368 4e-6,-6.93873 5.62495,-12.56367 12.56368,-12.56367 6.93872,0 12.56367,5.62495 12.56367,12.56367 z m -13.49746,32.08892 c -12.705532,4.3e-4 -23.005675,-10.75529 -23.005864,-24.02343 -8.47e-4,-13.2689 10.299599,-24.02582 23.005864,-24.02539 8.11866,0.0116 15.63033,4.49117 19.76562,11.78711 4.13529,-7.29594 11.64696,-11.77551 19.76562,-11.78711 12.70626,-4.3e-4 23.00671,10.75649 23.00586,24.02539 -1.9e-4,13.26814 -10.30033,24.02386 -23.00586,24.02343 -8.11828,-0.0112 -15.62986,-4.48997 -19.76562,-11.78515 -4.13576,7.29518 -11.64734,11.77393 -19.76562,11.78515 z"
	/>
</svg>