<?xml version="1.0" encoding="UTF-8" standalone="no"?>
<!-- Created with Inkscape (http://www.inkscape.org/) by Toomai Glittershine for SmashWiki -->
<svg id="svg2" xmlns:rdf="http://www.w3.org/1999/02/22-rdf-syntax-ns#" xmlns="http://www.w3.org/2000/svg" version="1.1" xmlns:cc="http://creativecommons.org/ns#" xmlns:dc="http://purl.org/dc/elements/1.1/"
		height="256" width="256"
		viewBox="0 0 256 256">
	<metadata id="metadata7">
		<rdf:RDF>
			<cc:Work rdf:about="">
				<dc:format>image/svg+xml</dc:format>
				<dc:type rdf:resource="http://purl.org/dc/dcmitype/StillImage"/>
				<dc:title/>
			</cc:Work>
		</rdf:RDF>
	</metadata>
	<path id="mainsymbolpath" style="opacity:0.5;fill:#000000;fill-opacity:1;stroke:none"
		d="m 219.86881,51.223746 c -1.335,-0.03625 -10.27259,8.461339 -40.0898,11.296981 -30.77906,2.927116 -25.8867,-3.360127 -54.89175,-3.360127 -29.005046,0 -44.269995,20.300282 -43.826494,37.685571 0.365813,14.339859 12.671361,21.913219 16.974439,24.129189 -1.800263,0.58705 -3.609165,1.12832 -5.474691,1.62213 -18.841307,4.98741 -22.999495,3.476 -22.999495,3.476 3.90038,-4.28091 6.338789,-11.36475 4.721558,-17.61171 -2.749714,3.01582 -7.958742,9.4408 -12.426679,11.58665 -4.653528,2.23498 -10.407985,3.06165 -14.686076,6.11196 -5.055854,3.60487 -6.831542,9.54294 -6.343689,11.76044 -4.465508,4.04853 -9.166318,6.65323 -14.22261,7.03889 -0.842654,0.48786 -2.433196,2.08894 -2.433196,3.01253 0,0.9236 0.715507,6.20252 6.314723,8.25549 9.773753,3.58357 18.436824,1.30874 22.738796,-0.37657 9.623999,6.25338 17.72757,2.7808 17.72757,2.7808 -1.90976,-1.36904 -3.415391,-2.77177 -3.331161,-4.2581 5.111429,1.10392 10.352,1.55581 15.699907,1.4773 2.173161,7.00734 4.812249,9.23277 4.258093,10.34108 -0.554156,1.10832 -2.598963,0.92983 -5.185024,3.33117 -2.586062,2.40134 -10.131189,11.66505 -9.761751,15.72887 0.369437,4.06381 3.808433,10.31879 6.025057,12.16598 2.216625,1.84719 6.603937,3.13931 8.081686,2.95459 1.47775,-0.18472 4.554889,-1.38281 4.924326,-2.49113 0.369437,-1.10831 -0.582672,-4.17453 -1.506265,-5.09812 -0.923593,-0.92359 -7.676154,-4.08006 -7.676154,-6.11196 0,-2.03191 7.306265,-9.21093 9.153452,-10.68868 1.847187,-1.47775 7.176141,-2.84206 8.284453,-3.76566 1.108315,-0.92359 1.002915,-2.30975 1.187635,-3.41806 0.18471,-1.10831 -1.216602,-10.19625 -1.216602,-10.19625 0,0 7.626432,3.54151 16.308212,2.4332 8.68178,-1.10831 16.24512,-8.51194 21.23253,-10.54385 4.9874,-2.03191 9.83938,-2.79424 10.92041,-2.57803 -2.81069,3.53139 -4.9827,13.48905 -3.50496,20.50836 1.47776,7.01932 8.31342,9.59129 8.31342,10.51489 0,0.92359 -2.22952,3.69256 -5.18502,5.90919 -2.95551,2.21661 -12.75957,6.30001 -13.49845,7.03888 -0.73887,0.73888 -2.00961,3.31646 -1.82489,4.05533 0.18472,0.73888 3.12036,4.62374 5.70642,4.80846 2.58607,0.18472 7.58988,-0.38144 17.37997,-8.13962 9.79009,-7.75819 10.24372,-15.71706 8.95069,-18.85727 -1.29303,-3.14022 -5.76497,-2.63194 -5.99609,-5.15606 -0.56626,-6.18424 15.81255,-15.40823 15.6999,-28.99558 -0.0858,-10.34555 -8.86378,-16.45304 -8.86378,-16.45304 3.67552,0.86483 5.9007,2.95369 9.96452,5.90919 4.0638,2.9555 19.03702,12.32218 35.10754,10.65971 16.07053,-1.66247 30.27769,-32.2541 29.16938,-32.99297 -1.10831,-0.73888 -15.58492,11.30648 -39.53943,11.38388 -28.49508,0.0921 -35.9925,-11.3948 -54.83381,-11.21008 -9.83433,0.0964 -18.67521,3.01475 -27.54726,6.48852 -1.57097,-1.56198 -4.07286,-4.30864 -4.31602,-6.31472 -0.3548,-2.92712 -1.33465,-7.03004 11.61561,-8.892751 12.95027,-1.862713 26.78624,7.948031 54.10965,-4.953296 23.97069,-11.318274 41.5851,-41.351727 40.6981,-41.97263 -0.0277,-0.0194 -0.0438,-0.0278 -0.0869,-0.02897 z"
	/>
</svg>