<?xml version="1.0" encoding="UTF-8" standalone="no"?>
<!-- Created with Inkscape (http://www.inkscape.org/) by Toomai Glittershine for SmashWiki -->
<svg id="svg2" xmlns:rdf="http://www.w3.org/1999/02/22-rdf-syntax-ns#" xmlns="http://www.w3.org/2000/svg" version="1.1" xmlns:cc="http://creativecommons.org/ns#" xmlns:dc="http://purl.org/dc/elements/1.1/"
		height="256" width="256"
		viewBox="0 0 256 256">
	<metadata id="metadata7">
		<rdf:RDF>
			<cc:Work rdf:about="">
				<dc:format>image/svg+xml</dc:format>
				<dc:type rdf:resource="http://purl.org/dc/dcmitype/StillImage"/>
				<dc:title/>
			</cc:Work>
		</rdf:RDF>
	</metadata>
	<path id="mainsymbolpath" style="opacity:0.5;fill:#000000;fill-opacity:1;stroke:none"
		d="m 203.46875,32.59375 c -1.10071,0 -4.41638,2.456715 -5.09375,3.21875 -0.67736,0.762035 -0.59681,1.511191 -1.0625,2.78125 -0.45553,1.242351 -0.29174,2.826032 -1.15625,4.28125 -0.25534,0.143522 -0.44689,0.259096 -0.59375,0.3125 -0.58743,0.213617 -1.07983,-0.306187 -3.75,0.28125 -2.67017,0.587436 -3.87842,1.914485 -9.21875,4.53125 -5.34034,2.616764 -8.72452,2.669622 -14.8125,5.5 -6.08798,2.830377 -9.07383,4.594496 -14.09375,6.25 -5.01991,1.655504 -11.75182,0.633235 -18,3.25 -2.35445,0.986049 -4.03749,3.515844 -4.6875,4.625 l -2.0625,-3.8125 c 0,0 1.89693,-1.394418 2.625,-2.40625 0.7532,-1.046772 1.29407,-2.513655 1.53125,-3.78125 0.36843,-1.968848 0.0937,-5.8125 0.0937,-5.8125 0,0 0.45238,-0.239814 0.625,-0.46875 0.62336,-0.826792 0.0625,-2.84375 0.0625,-2.84375 0,0 0.42156,0.150198 0.9375,-0.0625 0.6564,-0.270601 0.375,-0.71875 0.375,-0.71875 1.03431,0.34477 2.6118,-0.984713 2.5625,-1.625 -0.0493,-0.640287 -0.625,-1.15625 -0.625,-1.15625 0,0 0.7368,0.202111 0.6875,-1.71875 -0.0493,-1.92086 -3.34375,-5.25 -3.34375,-5.25 -0.52714,0.240491 -1.03592,0.294123 -1.6875,1.28125 0,0 -1.27241,-0.84375 -2.75,-0.84375 -1.47758,0 -2.875,0.71875 -2.875,0.71875 0,0 -1.00509,-1.28125 -3.8125,-1.28125 -2.80741,0 -3.0625,1.09375 -3.0625,1.09375 0,0 -0.73165,-0.24524 -2.40625,-0.34375 -1.67459,-0.09851 -2.78125,0.53125 -2.78125,0.53125 0,0 -2.20889,0.258148 -4.03125,2.03125 -1.82235,1.773102 -3.0493,5.136884 -3,7.15625 0.0493,2.019367 1.3125,3.84375 1.3125,3.84375 0,0 -3.13149,3.10344 -3.03125,4.28125 0.0975,1.145677 2.3125,1.03125 2.3125,1.03125 0,0 -0.40407,1.242427 -0.15625,1.78125 0.15232,0.331182 0.62741,0.388272 0.78125,0.71875 0.1876,0.402965 -0.16773,0.838372 0,1.25 0.14046,0.344695 0.677,0.416267 0.75,0.78125 0.14776,0.738793 -0.0625,2.25 -0.0625,2.25 -0.02,0.921457 1.28836,1.50534 2.03125,1.53125 l 4.25,0.15625 c 0.8824,0.03078 2.2488,1.811531 2.3125,3.1875 l 0.21875,4.625 -5.5,4.53125 c -1.79026,-0.01502 -4.89803,0.02212 -7.875,0.40625 -4.43379,0.572101 -3.01096,1.830949 -8.875,2.59375 -3.624002,0.471414 -6.131493,0.59535 -9.46875,0.5 -3.337257,-0.09535 -3.784966,-0.514825 -8.21875,-0.5625 -4.433784,-0.04767 -22.916367,1.0593 -26.96875,1.25 -4.052384,0.190701 -5.253457,0.406488 -7.15625,0.9375 -2.050029,0.572102 -1.957972,0.8093 -3.53125,1 -1.573278,0.190701 -5.862199,0.108575 -6.625,0.15625 -0.762802,0.04768 -2.607729,0.625423 -0.84375,1.53125 1.763978,0.905826 5.625,0.625 5.625,0.625 0,0 0.428622,1.897096 2.8125,1.9375 2.050253,0.03475 3.09375,-0.5625 3.09375,-0.5625 1.191877,0.333726 2.529319,0.5625 5.4375,0.5625 4.052384,0 5.4375,-1.90625 5.4375,-1.90625 0,0 8.243692,1.284873 12.34375,2 4.100058,0.715126 5.794567,1.1875 9.65625,1.1875 3.861682,0 7.9375,-0.625 7.9375,-0.625 0,0 5.036567,0.59375 9.375,0.59375 3.969812,0 13.32711,-0.184833 15.03125,-0.21875 -0.40847,1.763798 -1.79059,8.13298 -0.78125,10.96875 1.16796,3.2814 5.23523,4.06749 5.875,4.34375 2.44715,1.05672 5.2504,8.22714 8.03125,10.0625 2.78084,1.83536 7.9909,5.4697 9.9375,7.75 1.12846,1.32191 2.77962,3.57107 3.96875,5.25 0.86213,1.21724 0.5,2.53125 0.5,2.53125 2.18515,0.0147 4.37972,-2.75704 6.3125,-5.1875 l 4.65625,2.9375 c -0.28478,24.4734 1.46286,48.9641 4.96875,73.4375 0.17882,0.007 0.35384,-0.006 0.53125,0 0.0411,1.90294 0.0641,4.28437 0,5.84375 -0.10376,2.5249 -0.10524,6.96935 -4.84375,8.90625 -4.73851,1.93691 -8.41261,0.96479 -10.9375,2.625 -2.5249,1.66021 -3.23727,3.52153 -1.75,4.59375 1.48727,1.07221 7.99967,0.0713 10.59375,-0.34375 2.59407,-0.41506 2.81764,-0.7679 5.03125,-0.90625 2.21361,-0.13835 8.6626,0.6144 11.1875,-1.21875 2.5249,-1.83314 -0.0571,-4.75605 -0.4375,-6.3125 -0.49934,-2.04273 -0.41626,-3.25422 -0.3125,-6.125 0.0703,-1.9461 0.55081,-5.35847 0.90625,-7.84375 1.45386,-0.38729 2.75147,-0.90738 3.84375,-1.65625 0,0 -3.89522,-20.86504 -2.84375,-32.71875 1.72556,-19.45307 7.4375,-43.5625 7.4375,-43.5625 15.80666,-7.14521 35.55061,-23.92209 36.28125,-27.3125 0.92059,-4.271879 0.59987,-24.915012 1.5,-25.65625 0.8832,-0.727299 1.1875,-2.34375 1.1875,-2.34375 -1.62319,-1.522605 -3.57484,-2.698091 -5.90625,-3.40625 0.0527,-1.865018 0.22613,-8.609755 0.25,-14.40625 0.64397,0.0153 1.21011,-0.110215 1.1875,-0.5625 -0.0368,-0.736079 -0.74244,-1.161972 -1.1875,-1.375 -2.9e-4,-0.09861 4.2e-4,-0.215023 0,-0.3125 0.47275,-0.265522 1.21875,-0.981677 1.21875,-2.9375 0,-1.34443 -0.47403,-2.182069 -1.375,-2.65625 -0.38143,-5.00984 -0.95826,-9.5 -2.03125,-9.5 z m -10,16.375 c -0.0883,0.428695 -0.14279,0.846291 -0.15625,1.25 -0.0847,2.540118 3.71875,5 3.71875,5 l -1.25,8.6875 c -0.59061,0.08681 -1.18957,0.188516 -1.8125,0.3125 l -0.34375,19.25 c 0,0 -0.84375,1.61089 -0.84375,3.125 0,1.514109 0.84375,3.625 0.84375,3.625 L 169,101.65625 c 0,0 -2.44826,-1.01668 -8,-0.34375 -5.55173,0.67294 -7.90625,1.90625 -7.90625,1.90625 l -1,-1.875 c -0.54374,0.31372 -1.31253,0.47375 -2.28125,0.46875 l 0.0937,-2.4375 c -0.60207,0.224928 -1.13757,0.470895 -2.25,0.59375 0,0 -3.90186,-2.678719 -5.34375,-5.5625 -1.44189,-2.883781 -3.03279,-10.973179 -2.5,-14.4375 0.5328,-3.46432 2.78318,-5.059286 4.8125,-6.875 2.02933,-1.815714 4.31666,-1.591282 11.3125,-5.0625 C 162.93334,64.560032 167.0429,64.612059 175,60.5 c 6.92443,-3.578398 15.53777,-9.913731 18.46875,-11.53125 z"
	/>
</svg>