<?xml version="1.0" encoding="UTF-8" standalone="no"?>
<!-- Created with Inkscape (http://www.inkscape.org/) by Toomai Glittershine for SmashWiki -->
<svg id="svg2" xmlns:rdf="http://www.w3.org/1999/02/22-rdf-syntax-ns#" xmlns="http://www.w3.org/2000/svg" version="1.1" xmlns:cc="http://creativecommons.org/ns#" xmlns:dc="http://purl.org/dc/elements/1.1/"
		height="256" width="256"
		viewBox="0 0 256 256">
	<metadata id="metadata7">
		<rdf:RDF>
			<cc:Work rdf:about="">
				<dc:format>image/svg+xml</dc:format>
				<dc:type rdf:resource="http://purl.org/dc/dcmitype/StillImage"/>
				<dc:title/>
			</cc:Work>
		</rdf:RDF>
	</metadata>
	<path id="mainsymbolpath" style="opacity:0.5;fill:#000000;fill-opacity:1;stroke:none"
		d="m 108.125,34.312499 c -0.32429,-0.0038 -0.66348,0.0153 -1,0.03125 -4.89481,0.231974 -11.095044,2.586422 -19.09375,7.84375 12.43824,0.05637 25.18517,-0.697975 32.53125,12.9375 -4.4997,-6.32155 -19.59667,-12.56745 -31.21875,4.96875 11.69501,-2.694719 20.5182,-4.149334 28.15625,-1.78125 -38.367707,7.172769 -67.4375,40.837204 -67.4375,81.281251 0,10.94563 2.165892,21.37643 6.03125,30.9375 -1.592044,0.14647 -3.198573,0.3035 -4.84375,0.40625 8.031603,2.67429 22.317246,6.71875 36.0625,6.71875 33.06951,0 53.22473,-12.59375 84.875,-12.59375 15.35926,0 30.75956,4.60927 38.40625,7.28125 -20.75223,-21.882 -39.51136,-44.37407 -46.4375,-70.5625 l -16.21875,0 c -0.11542,5.80051 -11.99508,46.8626 -62.59375,63 C 79.573893,154.62207 76.25,142.89006 76.25,130.375 c 0,-26.32779 14.577398,-49.231662 36.09375,-61.125001 -0.0325,0.28527 -0.0312,0.581038 -0.0312,0.875 0,4.19339 3.40036,7.59375 7.59375,7.59375 4.19339,0 7.5625,-3.40036 7.5625,-7.59375 0,-0.752857 -0.0772,-1.500904 -0.28125,-2.1875 12.43058,15.409365 11.60566,24.087691 10.40625,32.562501 7.71615,-9.46954 17.4041,-25.456635 -4.59375,-37.687501 27.557,9.136632 45.25444,26.311678 54.84375,39.375001 1.63621,-19.56602 -2.73632,-42.862342 -47.09375,-44.906251 -0.0318,-0.0015 -0.0619,0.0014 -0.0937,0 -0.0309,-0.003 -0.0628,0.0029 -0.0937,0 -2.5602,-0.242094 -5.15618,-0.375 -7.78125,-0.375 -0.35687,0 -0.7067,0.02674 -1.0625,0.03125 16.83873,-7.725076 33.06733,-0.507341 45.25,5.21875 -5.98804,-13.310376 -22.70796,-32.102411 -51.2814,-7.125 -3.26609,-11.107668 -7.50966,-20.60106 -17.5625,-20.71875 z m 44,70.812501 7.375,0 1,7.09375 -9.375,0 1,-7.09375 z m 22,67.21875 C 142.36426,172.89165 112.35921,193.5 80.59375,193.5 c -3.845235,0 -7.744303,-0.41885 -11.34375,-0.96875 15.168558,18.18108 38.00208,29.75 63.53125,29.75 31.7828,0 59.34473,-17.92129 73.1875,-44.21875 -10.05786,-2.79599 -23.1353,-5.86897 -31.84375,-5.71875 z"
	/>
</svg>