<?xml version="1.0" encoding="UTF-8" standalone="no"?>
<!-- Created with Inkscape (http://www.inkscape.org/) by Toomai Glittershine for SmashWiki -->

<svg
   xmlns:dc="http://purl.org/dc/elements/1.1/"
   xmlns:cc="http://creativecommons.org/ns#"
   xmlns:rdf="http://www.w3.org/1999/02/22-rdf-syntax-ns#"
   xmlns:svg="http://www.w3.org/2000/svg"
   xmlns="http://www.w3.org/2000/svg"
   xmlns:sodipodi="http://sodipodi.sourceforge.net/DTD/sodipodi-0.dtd"
   xmlns:inkscape="http://www.inkscape.org/namespaces/inkscape"
   id="svg2"
   version="1.1"
   height="256"
   width="256"
   viewBox="0 0 256 256"
   sodipodi:docname="WorldOfLightSymbol.svg"
   inkscape:version="0.92.3 (2405546, 2018-03-11)">
  <defs
     id="defs19" />
  <sodipodi:namedview
     pagecolor="#ffffff"
     bordercolor="#666666"
     borderopacity="1"
     objecttolerance="10"
     gridtolerance="10"
     guidetolerance="10"
     inkscape:pageopacity="0"
     inkscape:pageshadow="2"
     inkscape:window-width="1920"
     inkscape:window-height="1017"
     id="namedview17"
     showgrid="false"
     inkscape:zoom="1"
     inkscape:cx="-144"
     inkscape:cy="94.5"
     inkscape:window-x="1272"
     inkscape:window-y="-8"
     inkscape:window-maximized="1"
     inkscape:current-layer="svg2" />
  <metadata
     id="metadata7">
    <rdf:RDF>
      <cc:Work
         rdf:about="">
        <dc:format>image/svg+xml</dc:format>
        <dc:type
           rdf:resource="http://purl.org/dc/dcmitype/StillImage" />
        <dc:title></dc:title>
      </cc:Work>
    </rdf:RDF>
  </metadata>
  <path
     d="m 159.38875,28 c -9.42583,9.732057 -21.23564,17.999477 -44.52751,29.128663 -2.08612,3.148326 -14.59195,22.066986 -16.324015,39.23445 -2.08612,20.669857 9.091065,28.774897 15.225035,33.023697 -3.46412,-4.41148 -7.08231,-15.13875 -3.1493,-22.9665 -1.45454,-2.38278 -1.80861,-6.6016 -0.95693,-9.941318 -4.63158,3.559808 -6.51555,10.037758 -6.66866,12.860718 -3.081345,-16.746409 8.008,-22.383669 15.37642,-26.039172 6.9665,-3.454545 11.48482,-6.227946 13.81018,-8.524596 -3.93301,0.956937 -9.90476,1.961797 -12.89997,2.468975 0.62201,-0.956938 1.24402,-1.971666 1.91387,-3.014728 2.59331,-0.497608 13.89504,-2.784689 16.8137,-4.784689 a 32.172249,32.172249 0 0 0 6.564,-7.225628 177.51196,177.51196 0 0 1 -19.7518,5.741627 c 0.61244,-1.138756 1.19603,-2.26727 1.76062,-3.377318 4.7177,-1.349282 15.60847,-4.650345 21.17785,-7.750823 2.7177,-3.578947 4.52684,-8.613935 5.08186,-9.427332 -3.78947,3.177033 -16.4129,8.995888 -23.46553,11.215984 0.66029,-1.377991 1.24522,-2.602647 1.70455,-3.597863 5.01435,-2 22.00882,-10.257924 24.11408,-13.894288 A 73.377991,73.377991 0 0 0 159.38875,28 Z m -12.23086,55.407073 a 66.191388,66.191388 0 0 1 28.88196,26.555027 c 6.3732,11.20574 11.01323,25.67448 14.16156,45.54051 a 113.02392,113.02392 0 0 0 3.99035,-28.60346 c -1.4067,-2.60287 -4.88898,-5.75075 -8.09472,-8.63113 -0.0861,-1.41627 -0.25815,-2.87059 -0.48782,-4.31557 a 66.880383,66.880383 0 0 1 8.89841,7.34899 88.16268,88.16268 0 0 0 -1.12889,-10.61229 c -2.33493,-1.14833 -6.28709,-2.87015 -9.56938,-4.33426 -0.39235,-1.25359 -0.81348,-2.47854 -1.27281,-3.66515 3.33015,1.20574 7.0622,2.64115 9.56938,3.82775 a 51.244019,51.244019 0 0 0 -2.87081,-7.569523 88.92823,88.92823 0 0 0 -10.0385,-3.216582 32.038278,32.038278 0 0 0 -2.01855,-3.070799 c 2.15311,0.334928 7.33942,1.597563 9.5021,2.095171 -3.32057,-3.464115 -5.29194,-4.784091 -7.4929,-6.80323 a 186.27751,186.27751 0 0 0 -32.02938,-4.545454 z m 6.49859,16.553907 c 3.22488,7.70335 5.42509,23.28341 -2.44094,35.83844 -8.95694,14.30622 -22.54396,25.21493 -36.98415,34.78431 C 109.4754,191.24402 95.943025,215.48325 86.373645,228 c 1.29187,-0.5933 23.253375,-15.26368 26.325145,-17.52206 4.48804,-11.33014 7.43698,-22.52631 8.06856,-31.57894 1.25359,-0.689 2.62133,-1.53073 4.09501,-2.48767 0.35407,10.8134 -3.68384,27.23535 -3.68384,27.23535 l 13.82701,-11.05338 c 0.56459,-4.51674 1.05361,-14.96718 -0.19998,-22.69923 1.12919,-1.08134 2.26659,-2.21008 3.40535,-3.36797 2.33493,8.74641 2.68952,20.57416 2.68952,20.57416 0,0 7.65498,-7.07163 10.46837,-10.6123 a 83.330144,83.330144 0 0 0 -4.78469,-19.04343 c 0.89315,-1.05264 1.76441,-2.10711 2.61289,-3.16612 a 75.54067,75.54067 0 0 1 6.26869,16.72585 c 0,0 6.83239,-9.16657 8.21995,-12.23834 a 48.555024,48.555024 0 0 0 -7.77138,-13.88494 c 0.73684,-1.19618 1.41589,-2.37313 2.00919,-3.51189 1.65551,1.74163 5.96263,8.28612 8.0966,12.16171 a 51.253589,51.253589 0 0 0 3.30069,-26.30645 44.373206,44.373206 0 0 0 -15.66425,-27.26337 z m -22.12546,1.9662 a 14.832536,14.832536 0 0 0 -1.48213,0.0448 14.736842,14.736842 0 1 0 15.96142,13.52049 14.832536,14.832536 0 0 0 -14.47929,-13.56534 z m -46.200285,7.62373 c -7.16746,1.91387 -16.48803,8.07626 -20.09569,12.13367 2.26794,-0.44976 6.81324,-1.33073 10.13382,-2.28767 0,1.01435 8e-5,1.91387 0.0766,2.87081 -4.07656,1.21531 -12.49656,3.44475 -12.56355,3.59786 a 14.593301,14.593301 0 0 0 -1.38868,6.37336 c 5.11962,-1.25359 10.86177,-3.09966 14.89048,-4.42023 a 19.741627,19.741627 0 0 0 1.17748,2.57363 c -5.09091,2.0957 -15.64713,5.36805 -15.58014,5.59772 0.56459,2.16268 2.02871,3.82872 3.58851,5.54163 4.78469,-2.03826 11.3587,-4.43211 15.63622,-6.31728 a 26.794258,26.794258 0 0 0 2.18301,2.07836 c -4.27751,2.22966 -15.31056,6.89869 -15.09046,7.0518 a 24.526316,24.526316 0 0 0 8.17135,3.4932 c 4.09569,-1.78947 10.01017,-4.45043 13.77094,-6.43129 0.95694,0.45933 2.04739,0.95716 3.12873,1.42606 -3.82775,2.43062 -9.56998,5.51203 -11.61782,6.53596 11.37799,1.91387 34.449615,-1.9138 44.822825,-7.81811 a 90.583732,90.583732 0 0 1 -4.93795,-0.54576 c -18.14354,-2.05741 -31.291055,-9.11931 -35.999185,-17.63606 -3.33014,-6.0287 -2.08642,-10.7746 -0.30652,-13.81766 z"
     id="path3747"
     style="opacity:0.5;fill:#000000;fill-opacity:1;stroke-width:0.99999994"
     inkscape:connector-curvature="0" />
</svg>
