<?xml version="1.0" encoding="UTF-8" standalone="no"?>
<!-- Created with Inkscape (http://www.inkscape.org/) by Toomai Glittershine for SmashWiki -->
<svg id="svg2" xmlns:rdf="http://www.w3.org/1999/02/22-rdf-syntax-ns#" xmlns="http://www.w3.org/2000/svg" version="1.1" xmlns:cc="http://creativecommons.org/ns#" xmlns:dc="http://purl.org/dc/elements/1.1/"
		height="256" width="256"
		viewBox="0 0 256 256">
	<metadata id="metadata7">
		<rdf:RDF>
			<cc:Work rdf:about="">
				<dc:format>image/svg+xml</dc:format>
				<dc:type rdf:resource="http://purl.org/dc/dcmitype/StillImage"/>
				<dc:title/>
			</cc:Work>
		</rdf:RDF>
	</metadata>
	<path id="mainsymbolpath" style="opacity:0.5;fill:#000000;fill-opacity:1;stroke:none"
		d="M 213.71875,35.21875 173.90625,75 l -5.5625,2.40625 -25.4375,25.4375 c -9.53584,9.53584 -28.73315,8.17368 -39.74362,17.58262 C 95.180806,127.2472 78.8125,145.9375 78.8125,145.9375 l 0.5625,3.3125 -9.25,9.25 0.125,6.03125 -26.125,26.125 0,21.65625 32.28125,-32.28125 28.25,9.9375 1.75,-3.28125 13.0625,5.59375 0,10.46875 c 0,0 2.3257,0.1875 4.375,0.1875 26.75537,0 49.28125,-20.99463 49.28125,-47.75 0,-2.5099 0.85936,-13.85936 14.03125,-27.03125 l 26.5625,-26.5625 0,-27 -4.96875,4.96875 -8.5,0 0,-8.46875 13.46875,-13.5 z m -42.125,66.3125 9.34375,0 0,9.34375 -16,16 -9.34375,0 0,-9.34375 z m -52.6875,17.4375 0.71875,5.40625 c -9.67038,1.31709 -17.91633,7.09767 -22.625,15.1875 l -4.71875,-2.78125 c 5.544192,-9.50977 15.24571,-16.27387 26.625,-17.8125 z m 12.625,0.46875 c 11.68627,2.50074 21.28817,10.6017 25.90625,21.34375 l -5,2.15625 c -3.92575,-9.13629 -12.12713,-16.02571 -22.0625,-18.15625 z m -7.6875,6.40625 c 16.20659,0 29.34375,13.13716 29.34375,29.34375 0,16.20659 -13.13716,29.34375 -29.34375,29.34375 -16.20659,0 -29.34375,-13.13716 -29.34375,-29.34375 0,-16.20659 13.13716,-29.34375 29.34375,-29.34375 z m 0,1.90625 c -15.14499,0 -27.40625,12.29251 -27.40625,27.4375 0,15.14499 12.26126,27.40625 27.40625,27.40625 15.14499,0 27.4375,-12.26126 27.4375,-27.40625 0,-15.14499 -12.29251,-27.4375 -27.4375,-27.4375 z m 0,4.625 c 12.59713,0 22.8125,10.21537 22.8125,22.8125 0,12.59713 -10.21537,22.8125 -22.8125,22.8125 -12.59713,0 -22.8125,-10.21537 -22.8125,-22.8125 0,-12.59713 10.21537,-22.8125 22.8125,-22.8125 z M 158.5,148.4375 c 0.42269,2.1837 0.65625,4.4431 0.65625,6.75 0,19.49758 -15.81492,35.3125 -35.3125,35.3125 -1.99171,0 -3.94242,-0.18288 -5.84375,-0.5 l 0.5,-2.9375 c 1.73598,0.28825 3.52573,0.4375 5.34375,0.4375 17.85209,0 32.34375,-14.46041 32.34375,-32.3125 0,-2.11955 -0.20382,-4.1821 -0.59375,-6.1875 z m -66.9375,5 c -0.03111,0.58149 -0.03125,1.16072 -0.03125,1.75 0,9.18906 3.846967,17.46148 10,23.34375 l -2.0625,2.15625 C 92.79397,174.29191 88.60596,165.31045 88.5625,155.34375 z"
	/>
</svg>