<?xml version="1.0" encoding="UTF-8" standalone="no"?>
<!-- Created with Inkscape (http://www.inkscape.org/) by Toomai Glittershine for SmashWiki -->
<svg id="svg2" xmlns:rdf="http://www.w3.org/1999/02/22-rdf-syntax-ns#" xmlns="http://www.w3.org/2000/svg" version="1.1" xmlns:cc="http://creativecommons.org/ns#" xmlns:dc="http://purl.org/dc/elements/1.1/"
		height="256" width="256"
		viewBox="0 0 256 256">
	<metadata id="metadata7">
		<rdf:RDF>
			<cc:Work rdf:about="">
				<dc:format>image/svg+xml</dc:format>
				<dc:type rdf:resource="http://purl.org/dc/dcmitype/StillImage"/>
				<dc:title/>
			</cc:Work>
		</rdf:RDF>
	</metadata>
	<path id="mainsymbolpath" style="opacity:0.5;fill:#000000;fill-opacity:1;stroke:none"
		d="m 109.38659,49.91183 c -11.534182,10.064989 -13.06266,26.462645 -2.45286,40.141304 12.71717,16.395606 38.04383,22.671086 56.54546,14.043636 8.07841,-3.76703 13.50342,-9.756844 16.01604,-16.674715 -9.38935,-11.844999 -21.4467,-21.694147 -34.26237,-28.296233 -12.02652,-6.19555 -24.52513,-9.414926 -35.84627,-9.213992 z M 62.513722,90.181628 c -0.923211,2.792447 -1.74594,5.676236 -2.417149,8.643897 -4.366017,19.303755 -3.113072,41.457705 4.441325,60.545675 16.961828,-18.62344 21.491083,-45.87004 -2.024176,-69.189572 z m 63.836698,39.867342 c -17.92278,8.35753 -25.67695,29.66193 -17.31942,47.5847 8.35753,17.92278 29.66193,25.67695 47.58471,17.31942 17.92277,-8.35753 25.67694,-29.66192 17.31941,-47.5847 -8.35753,-17.92278 -29.66193,-25.67694 -47.5847,-17.31942 z m 73.112,-27.81319 c 21.47498,46.05323 3.66768,90.38907 -35.32327,108.57085 C 125.1482,228.98841 79.738683,214.13105 58.263708,168.07782 36.788732,122.02458 50.604161,60.711658 86.37139,44.033125 122.13862,27.354593 177.98745,56.182542 199.46242,102.23578 z"
	/>
</svg>